<svg version="1.1" viewBox="0.0 0.0 960.0 540.0" fill="none" stroke="none" stroke-linecap="square" stroke-miterlimit="10" xmlns:xlink="http://www.w3.org/1999/xlink" xmlns="http://www.w3.org/2000/svg"><clipPath id="g2e1d4a753f5_1_364.0"><path d="m0 0l960.0 0l0 540.0l-960.0 0l0 -540.0z" clip-rule="nonzero"/></clipPath><g clip-path="url(#g2e1d4a753f5_1_364.0)"><path fill="#ffffff" d="m0 0l960.0 0l0 540.0l-960.0 0z" fill-rule="evenodd"/><path fill="#000000" fill-opacity="0.0" d="m72.49344 177.85301l177.82677 0l0 29.259842l-177.82677 0z" fill-rule="evenodd"/><path fill="#000000" d="m99.18983 195.93169q-0.40625 1.46875 -1.296875 2.421875q-0.890625 0.953125 -2.140625 1.390625q-1.234375 0.4375 -2.71875 0.4375q-2.140625 0 -3.703125 -0.859375q-1.546875 -0.875 -2.390625 -2.484375q-0.828125 -1.625 -0.828125 -3.90625q0 -2.296875 0.828125 -3.90625q0.84375 -1.625 2.390625 -2.484375q1.5625 -0.875 3.671875 -0.875q1.484375 0 2.71875 0.421875q1.234375 0.421875 2.078125 1.28125q0.859375 0.84375 1.21875 2.1875l-3.21875 1.296875q-0.296875 -1.3125 -0.96875 -1.796875q-0.671875 -0.5 -1.6875 -0.5q-1.015625 0 -1.75 0.5q-0.734375 0.484375 -1.125 1.453125q-0.390625 0.96875 -0.390625 2.421875q0 1.421875 0.359375 2.40625q0.359375 0.984375 1.09375 1.46875q0.734375 0.484375 1.828125 0.484375q1.015625 0 1.734375 -0.5625q0.71875 -0.5625 0.96875 -1.734375l3.328125 0.9375zm1.7901306 4.03125l0 -10.671875l3.203125 0l0.15625 2.3125q0.40625 -1.203125 1.203125 -1.859375q0.796875 -0.65625 2.03125 -0.65625q0.40625 0 0.6875 0.0625q0.296875 0.0625 0.46875 0.171875l-0.359375 2.984375q-0.21875 -0.078125 -0.546875 -0.125q-0.328125 -0.0625 -0.796875 -0.0625q-0.640625 0 -1.203125 0.28125q-0.546875 0.265625 -0.890625 0.8125q-0.328125 0.546875 -0.328125 1.375l0 5.375l-3.625 0zm14.121246 -10.875q1.6875 0 2.953125 0.65625q1.265625 0.640625 1.984375 1.890625q0.71875 1.25 0.71875 3.0q0 1.75 -0.71875 3.0q-0.71875 1.234375 -1.984375 1.890625q-1.265625 0.65625 -2.953125 0.65625q-1.640625 0 -2.921875 -0.65625q-1.28125 -0.65625 -2.0 -1.890625q-0.703125 -1.25 -0.703125 -3.0q0 -1.75 0.703125 -3.0q0.71875 -1.25 2.0 -1.890625q1.28125 -0.65625 2.921875 -0.65625zm0 2.578125q-0.609375 0 -1.0625 0.296875q-0.453125 0.296875 -0.6875 0.96875q-0.234375 0.65625 -0.234375 1.703125q0 1.046875 0.234375 1.703125q0.234375 0.640625 0.6875 0.953125q0.453125 0.296875 1.0625 0.296875q0.640625 0 1.078125 -0.296875q0.453125 -0.3125 0.6875 -0.953125q0.234375 -0.65625 0.234375 -1.703125q0 -1.046875 -0.234375 -1.703125q-0.234375 -0.671875 -0.6875 -0.96875q-0.4375 -0.296875 -1.078125 -0.296875zm21.388893 -2.375l3.796875 0l-3.21875 10.671875l-4.34375 0l-1.9375 -6.546875l-1.890625 6.546875l-4.3281174 0l-3.234375 -10.671875l3.8125 0l1.796875 7.875l2.0937424 -7.875l3.578125 0l2.0625 7.875l1.8125 -7.875zm8.871185 10.890625q-1.3125 0 -2.3125 -0.65625q-0.984375 -0.65625 -1.53125 -1.890625q-0.546875 -1.234375 -0.546875 -2.96875q0 -1.78125 0.5625 -3.015625q0.578125 -1.25 1.578125 -1.90625q1.015625 -0.65625 2.34375 -0.65625q1.453125 0 2.328125 0.890625q0.890625 0.875 1.140625 2.25l-0.328125 0.4375l0 -7.890625l3.625 0l0 15.1875l-3.25 0l-0.234375 -3.625l0.421875 0.3125q-0.125 1.078125 -0.65625 1.875q-0.515625 0.78125 -1.3125 1.21875q-0.796875 0.4375 -1.828125 0.4375zm1.265625 -2.671875q0.625 0 1.0625 -0.328125q0.4375 -0.328125 0.671875 -0.984375q0.234375 -0.671875 0.234375 -1.625q0 -0.90625 -0.234375 -1.53125q-0.21875 -0.625 -0.65625 -0.953125q-0.4375 -0.34375 -1.0625 -0.34375q-0.9375 0 -1.484375 0.703125q-0.53125 0.6875 -0.53125 2.1875q0 1.484375 0.53125 2.1875q0.53125 0.6875 1.46875 0.6875zm12.669662 2.671875q-1.59375 0 -2.984375 -0.515625q-1.375 -0.53125 -2.265625 -1.515625l1.703125 -2.0q0.53125 0.671875 1.421875 1.140625q0.890625 0.453125 1.96875 0.453125q0.671875 0 1.09375 -0.1875q0.421875 -0.203125 0.421875 -0.59375q0 -0.3125 -0.21875 -0.484375q-0.203125 -0.1875 -0.84375 -0.3125l-1.5 -0.296875q-2.0 -0.40625 -2.84375 -1.203125q-0.84375 -0.796875 -0.84375 -2.109375q0 -0.875 0.53125 -1.671875q0.546875 -0.796875 1.65625 -1.296875q1.109375 -0.5 2.828125 -0.5q1.625 0 2.859375 0.46875q1.234375 0.46875 1.96875 1.359375l-1.734375 1.96875q-0.515625 -0.640625 -1.328125 -1.0q-0.796875 -0.375 -1.609375 -0.375q-0.515625 0 -0.875 0.109375q-0.34375 0.09375 -0.515625 0.265625q-0.171875 0.171875 -0.171875 0.421875q0 0.28125 0.265625 0.484375q0.265625 0.203125 1.0 0.34375l1.9375 0.390625q1.640625 0.296875 2.359375 1.09375q0.734375 0.78125 0.734375 1.890625q0 1.046875 -0.5625 1.875q-0.546875 0.828125 -1.65625 1.3125q-1.109375 0.484375 -2.796875 0.484375zm11.89769 -11.09375q1.6875 0 2.953125 0.65625q1.265625 0.640625 1.984375 1.890625q0.71875 1.25 0.71875 3.0q0 1.75 -0.71875 3.0q-0.71875 1.234375 -1.984375 1.890625q-1.265625 0.65625 -2.953125 0.65625q-1.640625 0 -2.921875 -0.65625q-1.28125 -0.65625 -2.0 -1.890625q-0.703125 -1.25 -0.703125 -3.0q0 -1.75 0.703125 -3.0q0.71875 -1.25 2.0 -1.890625q1.28125 -0.65625 2.921875 -0.65625zm0 2.578125q-0.609375 0 -1.0625 0.296875q-0.453125 0.296875 -0.6875 0.96875q-0.234375 0.65625 -0.234375 1.703125q0 1.046875 0.234375 1.703125q0.234375 0.640625 0.6875 0.953125q0.453125 0.296875 1.0625 0.296875q0.640625 0 1.078125 -0.296875q0.453125 -0.3125 0.6875 -0.953125q0.234375 -0.65625 0.234375 -1.703125q0 -1.046875 -0.234375 -1.703125q-0.234375 -0.671875 -0.6875 -0.96875q-0.4375 -0.296875 -1.078125 -0.296875zm11.306854 8.515625q-1.09375 0 -1.921875 -0.375q-0.8125 -0.375 -1.28125 -1.203125q-0.46875 -0.84375 -0.46875 -2.1875l0 -7.125l3.625 0l0 6.28125q0 1.015625 0.40625 1.421875q0.40625 0.40625 1.15625 0.40625q0.375 0 0.71875 -0.140625q0.34375 -0.140625 0.59375 -0.421875q0.265625 -0.28125 0.40625 -0.734375q0.140625 -0.46875 0.140625 -1.09375l0 -5.71875l3.625 0l0 10.671875l-3.25 0l-0.109375 -2.0q-0.5 1.125 -1.421875 1.671875q-0.921875 0.546875 -2.21875 0.546875zm9.592789 -0.21875l0 -10.671875l3.203125 0l0.15625 2.3125q0.40625 -1.203125 1.203125 -1.859375q0.796875 -0.65625 2.03125 -0.65625q0.40625 0 0.6875 0.0625q0.296875 0.0625 0.46875 0.171875l-0.359375 2.984375q-0.21875 -0.078125 -0.546875 -0.125q-0.328125 -0.0625 -0.796875 -0.0625q-0.640625 0 -1.203125 0.28125q-0.546875 0.265625 -0.890625 0.8125q-0.328125 0.546875 -0.328125 1.375l0 5.375l-3.625 0zm14.105621 -10.875q1.625 0 2.6875 0.46875q1.078125 0.453125 1.6875 1.203125q0.609375 0.75 0.765625 1.625l-3.359375 1.109375q-0.140625 -0.90625 -0.546875 -1.359375q-0.390625 -0.46875 -1.125 -0.46875q-0.6875 0 -1.15625 0.3125q-0.453125 0.3125 -0.6875 0.984375q-0.234375 0.671875 -0.234375 1.703125q0 1.046875 0.25 1.703125q0.265625 0.65625 0.734375 0.9375q0.46875 0.28125 1.109375 0.28125q0.53125 0 0.875 -0.1875q0.359375 -0.203125 0.59375 -0.59375q0.234375 -0.390625 0.296875 -0.9375l3.265625 1.046875q-0.140625 0.9375 -0.796875 1.671875q-0.65625 0.734375 -1.71875 1.171875q-1.0625 0.421875 -2.5 0.421875q-1.75 0 -3.046875 -0.65625q-1.296875 -0.65625 -2.0 -1.890625q-0.703125 -1.25 -0.703125 -3.0q0 -1.75 0.703125 -3.0q0.703125 -1.25 1.96875 -1.890625q1.265625 -0.65625 2.9375 -0.65625zm12.233734 11.09375q-1.765625 0 -3.0625 -0.65625q-1.28125 -0.671875 -1.984375 -1.90625q-0.703125 -1.234375 -0.703125 -2.984375q0 -1.75 0.703125 -2.984375q0.703125 -1.25 1.96875 -1.90625q1.265625 -0.65625 2.90625 -0.65625q1.6875 0 2.875 0.65625q1.1875 0.640625 1.796875 1.78125q0.625 1.140625 0.625 2.609375q0 0.390625 -0.03125 0.78125q-0.015625 0.375 -0.0625 0.625l-8.4375 0l0 -1.9375l6.84375 0l-1.71875 0.671875q0 -1.28125 -0.46875 -1.96875q-0.453125 -0.6875 -1.421875 -0.6875q-0.671875 0 -1.15625 0.328125q-0.484375 0.3125 -0.734375 1.0q-0.234375 0.6875 -0.234375 1.75q0 1.046875 0.265625 1.703125q0.28125 0.640625 0.796875 0.9375q0.515625 0.28125 1.234375 0.28125q0.8125 0 1.296875 -0.3125q0.484375 -0.328125 0.71875 -0.90625l2.890625 0.953125q-0.296875 0.921875 -1.03125 1.5625q-0.734375 0.625 -1.75 0.953125q-1.015625 0.3125 -2.125 0.3125zm11.06778 0q-1.3125 0 -2.3125 -0.65625q-0.984375 -0.65625 -1.53125 -1.890625q-0.546875 -1.234375 -0.546875 -2.96875q0 -1.78125 0.5625 -3.015625q0.578125 -1.25 1.578125 -1.90625q1.015625 -0.65625 2.34375 -0.65625q1.453125 0 2.328125 0.890625q0.890625 0.875 1.140625 2.25l-0.328125 0.4375l0 -7.890625l3.625 0l0 15.1875l-3.25 0l-0.234375 -3.625l0.421875 0.3125q-0.125 1.078125 -0.65625 1.875q-0.515625 0.78125 -1.3125 1.21875q-0.796875 0.4375 -1.828125 0.4375zm1.265625 -2.671875q0.625 0 1.0625 -0.328125q0.4375 -0.328125 0.671875 -0.984375q0.234375 -0.671875 0.234375 -1.625q0 -0.90625 -0.234375 -1.53125q-0.21875 -0.625 -0.65625 -0.953125q-0.4375 -0.34375 -1.0625 -0.34375q-0.9375 0 -1.484375 0.703125q-0.53125 0.6875 -0.53125 2.1875q0 1.484375 0.53125 2.1875q0.53125 0.6875 1.46875 0.6875z" fill-rule="nonzero"/><path fill="#000000" fill-opacity="0.0" d="m80.49417 208.54588l166.83466 0l0 45.95276l-166.83466 0z" fill-rule="evenodd"/><path fill="#000000" d="m115.00473 227.31851q-1.203125 0 -2.125 -0.46875q-0.921875 -0.484375 -1.4375 -1.359375q-0.5 -0.875 -0.5 -2.015625l0 -4.765625q0 -1.125 0.5 -1.984375q0.515625 -0.875 1.4375 -1.34375q0.921875 -0.484375 2.125 -0.484375q1.21875 0 2.140625 0.46875q0.921875 0.46875 1.421875 1.3125q0.515625 0.84375 0.515625 1.953125q0 0.09375 -0.0625 0.15625q-0.046875 0.046875 -0.109375 0.046875l-0.890625 0.046875q-0.171875 0 -0.171875 -0.15625l0 -0.046875q0 -1.234375 -0.78125 -1.96875q-0.765625 -0.734375 -2.0625 -0.734375q-1.28125 0 -2.0625 0.75q-0.765625 0.734375 -0.765625 1.953125l0 4.84375q0 1.21875 0.765625 1.96875q0.78125 0.734375 2.0625 0.734375q1.296875 0 2.0625 -0.734375q0.78125 -0.734375 0.78125 -1.96875l0 -0.03125q0 -0.15625 0.171875 -0.15625l0.890625 0.046875q0.171875 0 0.171875 0.15625q0 1.125 -0.515625 1.984375q-0.5 0.859375 -1.421875 1.328125q-0.921875 0.46875 -2.140625 0.46875zm10.127487 -9.015625q0.578125 0 0.984375 0.234375q0.140625 0.0625 0.109375 0.21875l-0.1875 0.84375q-0.0625 0.1875 -0.234375 0.109375q-0.296875 -0.125 -0.671875 -0.125l-0.21875 0.015625q-0.90625 0.046875 -1.5 0.6875q-0.59375 0.625 -0.59375 1.59375l0 5.109375q0 0.171875 -0.171875 0.171875l-0.875 0q-0.171875 0 -0.171875 -0.171875l0 -8.421875q0 -0.171875 0.171875 -0.171875l0.875 0q0.171875 0 0.171875 0.171875l0 1.0625q0 0.046875 0.03125 0.0625q0.03125 0 0.046875 -0.03125q0.359375 -0.640625 0.921875 -1.0q0.5625 -0.359375 1.3125 -0.359375zm6.0332336 9.0q-1.25 0 -2.15625 -0.640625q-0.890625 -0.640625 -1.25 -1.765625q-0.234375 -0.796875 -0.234375 -2.140625q0 -1.328125 0.234375 -2.109375q0.328125 -1.109375 1.234375 -1.75q0.90625 -0.640625 2.1875 -0.640625q1.234375 0 2.125 0.640625q0.890625 0.640625 1.21875 1.734375q0.234375 0.75 0.234375 2.125q0 1.40625 -0.234375 2.140625q-0.328125 1.125 -1.21875 1.765625q-0.890625 0.640625 -2.140625 0.640625zm0 -1.078125q0.828125 0 1.40625 -0.453125q0.59375 -0.46875 0.8125 -1.25q0.15625 -0.609375 0.15625 -1.75q0 -1.140625 -0.140625 -1.75q-0.203125 -0.765625 -0.8125 -1.21875q-0.59375 -0.46875 -1.4375 -0.46875q-0.859375 0 -1.453125 0.46875q-0.578125 0.453125 -0.78125 1.21875q-0.140625 0.609375 -0.140625 1.75q0 1.15625 0.140625 1.75q0.1875 0.78125 0.78125 1.25q0.59375 0.453125 1.46875 0.453125zm7.565857 0.9375q-0.140625 0 -0.1875 -0.140625l-2.46875 -8.4375l-0.015625 -0.046875q0 -0.140625 0.171875 -0.140625l0.90625 0q0.15625 0 0.1875 0.15625l1.84375 6.828125q0.015625 0.03125 0.03125 0.03125q0.03125 0 0.046875 -0.03125l1.875 -6.828125q0.03125 -0.15625 0.1875 -0.15625l0.84375 0q0.15625 0 0.1875 0.140625l1.890625 6.828125q0.015625 0.03125 0.046875 0.03125q0.03125 0 0.046875 -0.03125l1.890625 -6.8125q0.03125 -0.15625 0.1875 -0.15625l0.90625 0.015625q0.09375 0 0.125 0.0625q0.046875 0.046875 0.03125 0.125l-2.5 8.421875q-0.046875 0.140625 -0.1875 0.140625l-0.921875 0q-0.125 0 -0.1875 -0.140625l-1.890625 -6.484375q-0.015625 -0.03125 -0.046875 -0.03125q-0.015625 0 -0.03125 0.03125l-1.84375 6.484375q-0.046875 0.140625 -0.1875 0.140625l-0.9375 0zm15.823837 -11.953125q0 -0.171875 0.171875 -0.171875l0.890625 0q0.171875 0 0.171875 0.171875l0 11.78125q0 0.171875 -0.171875 0.171875l-0.890625 0q-0.171875 0 -0.171875 -0.171875l0 -0.734375q0 -0.03125 -0.03125 -0.03125q-0.015625 -0.015625 -0.0625 0.015625q-0.375 0.5 -0.9375 0.78125q-0.5625 0.28125 -1.25 0.28125q-1.21875 0 -2.046875 -0.625q-0.8125 -0.625 -1.125 -1.703125q-0.25 -0.78125 -0.25 -2.203125q0 -1.4375 0.203125 -2.140625q0.3125 -1.109375 1.140625 -1.734375q0.84375 -0.640625 2.078125 -0.640625q0.671875 0 1.234375 0.265625q0.578125 0.265625 0.953125 0.78125q0.046875 0.03125 0.0625 0.03125q0.03125 -0.015625 0.03125 -0.0625l0 -4.0625zm-0.3125 9.6875q0.15625 -0.34375 0.21875 -0.8125q0.078125 -0.46875 0.078125 -1.3125q0 -0.828125 -0.078125 -1.296875q-0.0625 -0.484375 -0.234375 -0.84375q-0.203125 -0.59375 -0.6875 -0.9375q-0.46875 -0.359375 -1.140625 -0.359375q-0.6875 0 -1.1875 0.34375q-0.5 0.34375 -0.734375 0.921875q-0.203125 0.375 -0.296875 0.859375q-0.09375 0.46875 -0.09375 1.3125q0 0.828125 0.0625 1.28125q0.078125 0.453125 0.25 0.828125q0.203125 0.625 0.734375 0.984375q0.53125 0.359375 1.25 0.359375q0.703125 0 1.171875 -0.359375q0.46875 -0.359375 0.6875 -0.96875zm7.2111053 2.359375q-0.96875 0 -1.734375 -0.3125q-0.75 -0.3125 -1.15625 -0.828125q-0.40625 -0.53125 -0.40625 -1.171875l0 -0.203125q0 -0.171875 0.171875 -0.171875l0.828125 0q0.1875 0 0.1875 0.171875l0 0.140625q0 0.5625 0.59375 1.0q0.59375 0.421875 1.5 0.421875q0.890625 0 1.4375 -0.40625q0.5625 -0.421875 0.5625 -1.03125q0 -0.4375 -0.28125 -0.71875q-0.28125 -0.28125 -0.671875 -0.4375q-0.390625 -0.15625 -1.203125 -0.390625q-0.96875 -0.28125 -1.59375 -0.546875q-0.625 -0.28125 -1.0625 -0.78125q-0.421875 -0.5 -0.421875 -1.25q0 -1.109375 0.859375 -1.765625q0.875 -0.671875 2.296875 -0.671875q0.953125 0 1.6875 0.3125q0.75 0.3125 1.140625 0.859375q0.40625 0.546875 0.40625 1.21875l0 0.0625q0 0.171875 -0.1875 0.171875l-0.8125 0q-0.171875 0 -0.171875 -0.171875l0 -0.0625q0 -0.578125 -0.5625 -0.96875q-0.5625 -0.40625 -1.515625 -0.40625q-0.875 0 -1.421875 0.359375q-0.53125 0.34375 -0.53125 0.96875q0 0.59375 0.515625 0.90625q0.515625 0.3125 1.609375 0.625q1.015625 0.28125 1.625 0.546875q0.625 0.265625 1.078125 0.765625q0.453125 0.484375 0.453125 1.28125q0 1.125 -0.890625 1.8125q-0.875 0.671875 -2.328125 0.671875zm8.803528 0.046875q-1.25 0 -2.15625 -0.640625q-0.890625 -0.640625 -1.25 -1.765625q-0.234375 -0.796875 -0.234375 -2.140625q0 -1.328125 0.234375 -2.109375q0.328125 -1.109375 1.234375 -1.75q0.90625 -0.640625 2.1875 -0.640625q1.234375 0 2.125 0.640625q0.890625 0.640625 1.21875 1.734375q0.234375 0.75 0.234375 2.125q0 1.40625 -0.234375 2.140625q-0.328125 1.125 -1.21875 1.765625q-0.890625 0.640625 -2.140625 0.640625zm0 -1.078125q0.828125 0 1.40625 -0.453125q0.59375 -0.46875 0.8125 -1.25q0.15625 -0.609375 0.15625 -1.75q0 -1.140625 -0.140625 -1.75q-0.203125 -0.765625 -0.8125 -1.21875q-0.59375 -0.46875 -1.4375 -0.46875q-0.859375 0 -1.453125 0.46875q-0.578125 0.453125 -0.78125 1.21875q-0.140625 0.609375 -0.140625 1.75q0 1.15625 0.140625 1.75q0.1875 0.78125 0.78125 1.25q0.59375 0.453125 1.46875 0.453125zm11.396896 -7.65625q0 -0.171875 0.171875 -0.171875l0.890625 0q0.171875 0 0.171875 0.171875l0 8.421875q0 0.171875 -0.171875 0.171875l-0.890625 0q-0.171875 0 -0.171875 -0.171875l0 -0.75q0 -0.03125 -0.03125 -0.046875q-0.03125 -0.015625 -0.046875 0.015625q-0.734375 1.078125 -2.3125 1.078125q-0.828125 0 -1.53125 -0.328125q-0.703125 -0.34375 -1.109375 -0.984375q-0.40625 -0.65625 -0.40625 -1.546875l0 -5.859375q0 -0.171875 0.171875 -0.171875l0.875 0q0.1875 0 0.1875 0.171875l0 5.484375q0 1.0 0.546875 1.578125q0.5625 0.578125 1.515625 0.578125q0.984375 0 1.5625 -0.578125q0.578125 -0.59375 0.578125 -1.578125l0 -5.484375zm7.5222015 -0.265625q0.578125 0 0.984375 0.234375q0.140625 0.0625 0.109375 0.21875l-0.1875 0.84375q-0.0625 0.1875 -0.234375 0.109375q-0.296875 -0.125 -0.671875 -0.125l-0.21875 0.015625q-0.90625 0.046875 -1.5 0.6875q-0.59375 0.625 -0.59375 1.59375l0 5.109375q0 0.171875 -0.171875 0.171875l-0.875 0q-0.171875 0 -0.171875 -0.171875l0 -8.421875q0 -0.171875 0.171875 -0.171875l0.875 0q0.171875 0 0.171875 0.171875l0 1.0625q0 0.046875 0.03125 0.0625q0.03125 0 0.046875 -0.03125q0.359375 -0.640625 0.921875 -1.0q0.5625 -0.359375 1.3125 -0.359375zm6.0019836 9.0q-1.25 0 -2.15625 -0.640625q-0.890625 -0.65625 -1.21875 -1.765625q-0.21875 -0.765625 -0.21875 -2.15625q0 -1.25 0.21875 -2.109375q0.3125 -1.078125 1.21875 -1.71875q0.90625 -0.65625 2.15625 -0.65625q1.25 0 2.171875 0.640625q0.9375 0.640625 1.21875 1.59375q0.078125 0.3125 0.109375 0.515625l0 0.046875q0 0.109375 -0.15625 0.15625l-0.875 0.109375l-0.03125 0q-0.125 0 -0.15625 -0.15625l-0.046875 -0.25q-0.15625 -0.65625 -0.765625 -1.109375q-0.609375 -0.46875 -1.46875 -0.46875q-0.875 0 -1.453125 0.46875q-0.578125 0.453125 -0.75 1.203125q-0.15625 0.65625 -0.15625 1.75q0 1.15625 0.15625 1.765625q0.171875 0.78125 0.75 1.25q0.578125 0.453125 1.453125 0.453125q0.84375 0 1.453125 -0.4375q0.625 -0.4375 0.78125 -1.140625l0 -0.0625l0.015625 -0.078125q0.015625 -0.171875 0.203125 -0.140625l0.84375 0.140625q0.171875 0.046875 0.15625 0.203125l-0.0625 0.34375q-0.265625 1.0 -1.203125 1.625q-0.9375 0.625 -2.1875 0.625zm12.364822 -6.0q0.0625 0.484375 0.0625 1.21875l0 0.546875q0 0.171875 -0.171875 0.171875l-5.59375 0q-0.0625 0 -0.0625 0.078125q0.03125 0.953125 0.09375 1.234375q0.203125 0.765625 0.8125 1.21875q0.625 0.453125 1.609375 0.453125q0.71875 0 1.265625 -0.328125q0.5625 -0.328125 0.875 -0.9375q0.109375 -0.15625 0.25 -0.0625l0.671875 0.390625q0.140625 0.09375 0.0625 0.25q-0.421875 0.828125 -1.296875 1.3125q-0.859375 0.46875 -1.984375 0.46875q-1.234375 -0.015625 -2.078125 -0.578125q-0.828125 -0.578125 -1.1875 -1.609375q-0.3125 -0.828125 -0.3125 -2.390625q0 -0.71875 0.015625 -1.171875q0.03125 -0.46875 0.140625 -0.828125q0.296875 -1.140625 1.1875 -1.8125q0.890625 -0.671875 2.15625 -0.671875q1.578125 0 2.421875 0.796875q0.859375 0.796875 1.0625 2.25zm-3.484375 -1.96875q-0.84375 0 -1.40625 0.4375q-0.5625 0.4375 -0.734375 1.1875q-0.109375 0.359375 -0.140625 1.171875q0 0.078125 0.0625 0.078125l4.484375 0q0.078125 0 0.078125 -0.078125q-0.03125 -0.78125 -0.109375 -1.109375q-0.1875 -0.765625 -0.765625 -1.21875q-0.578125 -0.46875 -1.46875 -0.46875zm11.438965 -4.125q0 -0.171875 0.171875 -0.171875l0.890625 0q0.171875 0 0.171875 0.171875l0 11.78125q0 0.171875 -0.171875 0.171875l-0.890625 0q-0.171875 0 -0.171875 -0.171875l0 -0.734375q0 -0.03125 -0.03125 -0.03125q-0.015625 -0.015625 -0.0625 0.015625q-0.375 0.5 -0.9375 0.78125q-0.5625 0.28125 -1.25 0.28125q-1.21875 0 -2.046875 -0.625q-0.8125 -0.625 -1.125 -1.703125q-0.25 -0.78125 -0.25 -2.203125q0 -1.4375 0.203125 -2.140625q0.3125 -1.109375 1.140625 -1.734375q0.84375 -0.640625 2.078125 -0.640625q0.671875 0 1.234375 0.265625q0.578125 0.265625 0.953125 0.78125q0.046875 0.03125 0.0625 0.03125q0.03125 -0.015625 0.03125 -0.0625l0 -4.0625zm-0.3125 9.6875q0.15625 -0.34375 0.21875 -0.8125q0.078125 -0.46875 0.078125 -1.3125q0 -0.828125 -0.078125 -1.296875q-0.0625 -0.484375 -0.234375 -0.84375q-0.203125 -0.59375 -0.6875 -0.9375q-0.46875 -0.359375 -1.140625 -0.359375q-0.6875 0 -1.1875 0.34375q-0.5 0.34375 -0.734375 0.921875q-0.203125 0.375 -0.296875 0.859375q-0.09375 0.46875 -0.09375 1.3125q0 0.828125 0.0625 1.28125q0.078125 0.453125 0.25 0.828125q0.203125 0.625 0.734375 0.984375q0.53125 0.359375 1.25 0.359375q0.703125 0 1.171875 -0.359375q0.46875 -0.359375 0.6875 -0.96875z" fill-rule="nonzero"/><path fill="#000000" d="m141.0022 241.58414q0.25 0.828125 0.25 2.1875q0 1.390625 -0.21875 2.15625q-0.3125 1.109375 -1.140625 1.75q-0.828125 0.625 -2.0625 0.625q-0.6875 0 -1.265625 -0.265625q-0.5625 -0.28125 -0.9375 -0.78125q-0.03125 -0.03125 -0.0625 -0.015625q-0.03125 0 -0.03125 0.03125l0 4.078125q0 0.171875 -0.171875 0.171875l-0.875 0q-0.1875 0 -0.1875 -0.171875l0 -11.78125q0 -0.171875 0.1875 -0.171875l0.875 0q0.171875 0 0.171875 0.171875l0 0.734375q0 0.03125 0.03125 0.046875q0.03125 0 0.0625 -0.03125q0.375 -0.515625 0.9375 -0.78125q0.5625 -0.28125 1.265625 -0.28125q1.203125 0 2.03125 0.625q0.828125 0.625 1.140625 1.703125zm-1.375 4.375q0.1875 -0.375 0.28125 -0.84375q0.09375 -0.484375 0.09375 -1.34375q0 -0.8125 -0.078125 -1.265625q-0.0625 -0.453125 -0.234375 -0.828125q-0.203125 -0.625 -0.734375 -0.984375q-0.53125 -0.359375 -1.25 -0.359375q-0.703125 0 -1.171875 0.359375q-0.453125 0.359375 -0.6875 0.96875q-0.15625 0.34375 -0.234375 0.8125q-0.0625 0.46875 -0.0625 1.296875q0 0.84375 0.0625 1.328125q0.078125 0.46875 0.25 0.828125q0.21875 0.59375 0.6875 0.953125q0.484375 0.34375 1.140625 0.34375q0.6875 0 1.203125 -0.34375q0.515625 -0.34375 0.734375 -0.921875zm4.9556885 -8.15625q-0.421875 0 -0.703125 -0.28125q-0.265625 -0.28125 -0.265625 -0.6875q0 -0.4375 0.265625 -0.703125q0.28125 -0.265625 0.703125 -0.265625q0.421875 0 0.6875 0.265625q0.28125 0.265625 0.28125 0.703125q0 0.40625 -0.28125 0.6875q-0.265625 0.28125 -0.6875 0.28125zm-0.484375 10.34375q-0.171875 0 -0.171875 -0.171875l0 -8.421875q0 -0.171875 0.171875 -0.171875l0.875 0q0.1875 0 0.1875 0.171875l0 8.421875q0 0.171875 -0.1875 0.171875l-0.875 0zm7.38739 0.15625q-1.25 0 -2.15625 -0.640625q-0.890625 -0.65625 -1.21875 -1.765625q-0.21875 -0.765625 -0.21875 -2.15625q0 -1.25 0.21875 -2.109375q0.3125 -1.078125 1.21875 -1.71875q0.90625 -0.65625 2.15625 -0.65625q1.25 0 2.171875 0.640625q0.9375 0.640625 1.21875 1.59375q0.078125 0.3125 0.109375 0.515625l0 0.046875q0 0.109375 -0.15625 0.15625l-0.875 0.109375l-0.03125 0q-0.125 0 -0.15625 -0.15625l-0.046875 -0.25q-0.15625 -0.65625 -0.765625 -1.109375q-0.609375 -0.46875 -1.46875 -0.46875q-0.875 0 -1.453125 0.46875q-0.578125 0.453125 -0.75 1.203125q-0.15625 0.65625 -0.15625 1.75q0 1.15625 0.15625 1.765625q0.171875 0.78125 0.75 1.25q0.578125 0.453125 1.453125 0.453125q0.84375 0 1.453125 -0.4375q0.625 -0.4375 0.78125 -1.140625l0 -0.0625l0.015625 -0.078125q0.015625 -0.171875 0.203125 -0.140625l0.84375 0.140625q0.171875 0.046875 0.15625 0.203125l-0.0625 0.34375q-0.265625 1.0 -1.203125 1.625q-0.9375 0.625 -2.1875 0.625zm9.619949 -8.0625q0 0.171875 -0.171875 0.171875l-1.953125 0q-0.0625 0 -0.0625 0.078125l0 5.109375q0 0.828125 0.359375 1.171875q0.375 0.328125 1.171875 0.328125l0.4375 0q0.171875 0 0.171875 0.171875l0 0.71875q0 0.171875 -0.171875 0.171875q-0.203125 0.015625 -0.640625 0.015625q-1.25 0 -1.890625 -0.46875q-0.640625 -0.46875 -0.640625 -1.734375l0 -5.484375q0 -0.078125 -0.0625 -0.078125l-1.0625 0q-0.171875 0 -0.171875 -0.171875l0 -0.671875q0 -0.171875 0.171875 -0.171875l1.0625 0q0.0625 0 0.0625 -0.078125l0 -2.0q0 -0.171875 0.171875 -0.171875l0.859375 0q0.171875 0 0.171875 0.171875l0 2.0q0 0.078125 0.0625 0.078125l1.953125 0q0.171875 0 0.171875 0.171875l0 0.671875zm7.6824036 -0.671875q0 -0.171875 0.171875 -0.171875l0.890625 0q0.171875 0 0.171875 0.171875l0 8.421875q0 0.171875 -0.171875 0.171875l-0.890625 0q-0.171875 0 -0.171875 -0.171875l0 -0.75q0 -0.03125 -0.03125 -0.046875q-0.03125 -0.015625 -0.046875 0.015625q-0.734375 1.078125 -2.3125 1.078125q-0.828125 0 -1.53125 -0.328125q-0.703125 -0.34375 -1.109375 -0.984375q-0.40625 -0.65625 -0.40625 -1.546875l0 -5.859375q0 -0.171875 0.171875 -0.171875l0.875 0q0.1875 0 0.1875 0.171875l0 5.484375q0 1.0 0.546875 1.578125q0.5625 0.578125 1.515625 0.578125q0.984375 0 1.5625 -0.578125q0.578125 -0.59375 0.578125 -1.578125l0 -5.484375zm7.5222015 -0.265625q0.578125 0 0.984375 0.234375q0.140625 0.0625 0.109375 0.21875l-0.1875 0.84375q-0.0625 0.1875 -0.234375 0.109375q-0.296875 -0.125 -0.671875 -0.125l-0.21875 0.015625q-0.90625 0.046875 -1.5 0.6875q-0.59375 0.625 -0.59375 1.59375l0 5.109375q0 0.171875 -0.171875 0.171875l-0.875 0q-0.171875 0 -0.171875 -0.171875l0 -8.421875q0 -0.171875 0.171875 -0.171875l0.875 0q0.171875 0 0.171875 0.171875l0 1.0625q0 0.046875 0.03125 0.0625q0.03125 0 0.046875 -0.03125q0.359375 -0.640625 0.921875 -1.0q0.5625 -0.359375 1.3125 -0.359375zm9.408234 3.0q0.0625 0.484375 0.0625 1.21875l0 0.546875q0 0.171875 -0.171875 0.171875l-5.59375 0q-0.0625 0 -0.0625 0.078125q0.03125 0.953125 0.09375 1.234375q0.203125 0.765625 0.8125 1.21875q0.625 0.453125 1.609375 0.453125q0.71875 0 1.265625 -0.328125q0.5625 -0.328125 0.875 -0.9375q0.109375 -0.15625 0.25 -0.0625l0.671875 0.390625q0.140625 0.09375 0.0625 0.25q-0.421875 0.828125 -1.296875 1.3125q-0.859375 0.46875 -1.984375 0.46875q-1.234375 -0.015625 -2.078125 -0.578125q-0.828125 -0.578125 -1.1875 -1.609375q-0.3125 -0.828125 -0.3125 -2.390625q0 -0.71875 0.015625 -1.171875q0.03125 -0.46875 0.140625 -0.828125q0.296875 -1.140625 1.1875 -1.8125q0.890625 -0.671875 2.15625 -0.671875q1.578125 0 2.421875 0.796875q0.859375 0.796875 1.0625 2.25zm-3.484375 -1.96875q-0.84375 0 -1.40625 0.4375q-0.5625 0.4375 -0.734375 1.1875q-0.109375 0.359375 -0.140625 1.171875q0 0.078125 0.0625 0.078125l4.484375 0q0.078125 0 0.078125 -0.078125q-0.03125 -0.78125 -0.109375 -1.109375q-0.1875 -0.765625 -0.765625 -1.21875q-0.578125 -0.46875 -1.46875 -0.46875zm8.720459 7.921875q-0.96875 0 -1.734375 -0.3125q-0.75 -0.3125 -1.15625 -0.828125q-0.40625 -0.53125 -0.40625 -1.171875l0 -0.203125q0 -0.171875 0.171875 -0.171875l0.828125 0q0.1875 0 0.1875 0.171875l0 0.140625q0 0.5625 0.59375 1.0q0.59375 0.421875 1.5 0.421875q0.890625 0 1.4375 -0.40625q0.5625 -0.421875 0.5625 -1.03125q0 -0.4375 -0.28125 -0.71875q-0.28125 -0.28125 -0.671875 -0.4375q-0.390625 -0.15625 -1.203125 -0.390625q-0.96875 -0.28125 -1.59375 -0.546875q-0.625 -0.28125 -1.0625 -0.78125q-0.421875 -0.5 -0.421875 -1.25q0 -1.109375 0.859375 -1.765625q0.875 -0.671875 2.296875 -0.671875q0.953125 0 1.6875 0.3125q0.75 0.3125 1.140625 0.859375q0.40625 0.546875 0.40625 1.21875l0 0.0625q0 0.171875 -0.1875 0.171875l-0.8125 0q-0.171875 0 -0.171875 -0.171875l0 -0.0625q0 -0.578125 -0.5625 -0.96875q-0.5625 -0.40625 -1.515625 -0.40625q-0.875 0 -1.421875 0.359375q-0.53125 0.34375 -0.53125 0.96875q0 0.59375 0.515625 0.90625q0.515625 0.3125 1.609375 0.625q1.015625 0.28125 1.625 0.546875q0.625 0.265625 1.078125 0.765625q0.453125 0.484375 0.453125 1.28125q0 1.125 -0.890625 1.8125q-0.875 0.671875 -2.328125 0.671875z" fill-rule="nonzero"/><path fill="#000000" fill-opacity="0.0" d="m271.6556 344.9704l100.28345 0l0 29.259857l-100.28345 0z" fill-rule="evenodd"/><path fill="#000000" d="m298.0737 364.23657l7.0625 0l0 2.84375l-10.71875 0l0 -14.078125l3.65625 0l0 11.234375zm14.87085 -3.921875q0 -0.734375 -0.421875 -1.171875q-0.40625 -0.4375 -1.109375 -0.4375q-0.703125 0 -1.203125 0.359375q-0.5 0.34375 -0.703125 1.234375l-3.0625 -0.71875q0.296875 -1.546875 1.578125 -2.453125q1.28125 -0.921875 3.59375 -0.921875q1.5625 0 2.65625 0.46875q1.109375 0.453125 1.6875 1.359375q0.59375 0.90625 0.59375 2.21875l0 3.90625q0 0.828125 0.75 0.828125q0.375 0 0.609375 -0.078125l-0.21875 2.0625q-0.625 0.296875 -1.546875 0.296875q-0.828125 0 -1.46875 -0.265625q-0.640625 -0.265625 -1.015625 -0.796875q-0.359375 -0.546875 -0.359375 -1.390625l0 -0.125l0.40625 -0.140625q0 0.90625 -0.546875 1.53125q-0.53125 0.609375 -1.40625 0.921875q-0.859375 0.296875 -1.796875 0.296875q-1.09375 0 -1.90625 -0.34375q-0.796875 -0.34375 -1.234375 -0.984375q-0.4375 -0.65625 -0.4375 -1.625q0 -1.140625 0.6875 -1.890625q0.6875 -0.765625 2.1875 -1.0625l4.03125 -0.84375l-0.015625 1.921875l-2.046875 0.421875q-0.640625 0.140625 -0.953125 0.390625q-0.3125 0.234375 -0.3125 0.71875q0 0.46875 0.34375 0.703125q0.34375 0.234375 0.8125 0.234375q0.359375 0 0.6875 -0.09375q0.328125 -0.109375 0.578125 -0.328125q0.265625 -0.234375 0.40625 -0.5625q0.15625 -0.34375 0.15625 -0.828125l0 -2.8125zm13.239655 6.984375q-1.03125 0 -1.84375 -0.46875q-0.796875 -0.46875 -1.3125 -1.296875q-0.5 -0.828125 -0.65625 -1.859375l0.34375 -0.453125l-0.1875 3.859375l-3.1875 0l0 -15.1875l3.625 0l0 7.875l-0.34375 -0.515625q0.3125 -1.328125 1.21875 -2.1875q0.921875 -0.859375 2.484375 -0.859375q1.234375 0 2.203125 0.65625q0.96875 0.65625 1.515625 1.90625q0.546875 1.25 0.546875 3.015625q0 1.734375 -0.5625 2.96875q-0.546875 1.234375 -1.53125 1.890625q-0.984375 0.65625 -2.3125 0.65625zm-1.25 -2.671875q0.9375 0 1.46875 -0.6875q0.53125 -0.703125 0.53125 -2.1875q0 -1.5 -0.53125 -2.1875q-0.53125 -0.703125 -1.46875 -0.703125q-0.625 0 -1.0625 0.359375q-0.4375 0.359375 -0.671875 1.0q-0.234375 0.625 -0.234375 1.546875q0 0.921875 0.234375 1.5625q0.234375 0.640625 0.6875 0.96875q0.453125 0.328125 1.046875 0.328125zm12.982147 2.671875q-1.765625 0 -3.0625 -0.65625q-1.28125 -0.671875 -1.984375 -1.90625q-0.703125 -1.234375 -0.703125 -2.984375q0 -1.75 0.703125 -2.984375q0.703125 -1.25 1.96875 -1.90625q1.265625 -0.65625 2.90625 -0.65625q1.6875 0 2.875 0.65625q1.1875 0.640625 1.796875 1.78125q0.625 1.140625 0.625 2.609375q0 0.390625 -0.03125 0.78125q-0.015625 0.375 -0.0625 0.625l-8.4375 0l0 -1.9375l6.84375 0l-1.71875 0.671875q0 -1.28125 -0.46875 -1.96875q-0.453125 -0.6875 -1.421875 -0.6875q-0.671875 0 -1.15625 0.328125q-0.484375 0.3125 -0.734375 1.0q-0.234375 0.6875 -0.234375 1.75q0 1.046875 0.265625 1.703125q0.28125 0.640625 0.796875 0.9375q0.515625 0.28125 1.234375 0.28125q0.8125 0 1.296875 -0.3125q0.484375 -0.328125 0.71875 -0.90625l2.890625 0.953125q-0.296875 0.921875 -1.03125 1.5625q-0.734375 0.625 -1.75 0.953125q-1.015625 0.3125 -2.125 0.3125zm10.739655 -15.40625l0 11.5625q0 0.703125 0.234375 1.0q0.234375 0.296875 0.78125 0.296875q0.328125 0 0.53125 -0.03125q0.21875 -0.046875 0.515625 -0.140625l-0.234375 2.1875q-0.390625 0.234375 -1.015625 0.375q-0.609375 0.15625 -1.203125 0.15625q-1.703125 0 -2.46875 -0.78125q-0.765625 -0.796875 -0.765625 -2.59375l0 -12.03125l3.625 0z" fill-rule="nonzero"/><path fill="#000000" fill-opacity="0.0" d="m245.72726 375.66364l152.1575 0l0 53.35431l-152.1575 0z" fill-rule="evenodd"/><path fill="#000000" d="m274.85114 409.26077q-0.15625 0 -0.203125 -0.15625l-3.59375 -12.703125l-0.015625 -0.046875q0 -0.15625 0.1875 -0.15625l0.984375 0q0.171875 0 0.21875 0.15625l2.828125 10.21875q0.015625 0.03125 0.046875 0.03125q0.03125 0 0.046875 -0.03125l2.625 -10.203125q0.046875 -0.171875 0.21875 -0.171875l1.0 0q0.171875 0 0.203125 0.171875l2.75 10.203125q0.015625 0.03125 0.03125 0.03125q0.03125 0 0.0625 -0.03125l2.828125 -10.21875q0.046875 -0.15625 0.203125 -0.15625l0.953125 0q0.09375 0 0.140625 0.0625q0.046875 0.046875 0.03125 0.140625l-3.53125 12.703125q-0.03125 0.15625 -0.203125 0.15625l-0.984375 0q-0.171875 0 -0.203125 -0.171875l-2.734375 -10.4375q-0.015625 -0.046875 -0.046875 -0.046875q-0.015625 0 -0.046875 0.046875l-2.65625 10.4375q-0.03125 0.171875 -0.203125 0.171875l-0.9375 0zm14.458313 -11.15625q-0.453125 0 -0.75 -0.296875q-0.296875 -0.296875 -0.296875 -0.75q0 -0.46875 0.296875 -0.75q0.296875 -0.296875 0.75 -0.296875q0.4375 0 0.734375 0.296875q0.3125 0.28125 0.3125 0.75q0 0.453125 -0.3125 0.75q-0.296875 0.296875 -0.734375 0.296875zm-0.53125 11.140625q-0.1875 0 -0.1875 -0.1875l0 -9.0625q0 -0.1875 0.1875 -0.1875l0.953125 0q0.1875 0 0.1875 0.1875l0 9.0625q0 0.1875 -0.1875 0.1875l-0.953125 0zm8.632324 -8.515625q0 0.1875 -0.1875 0.1875l-2.109375 0q-0.078125 0 -0.078125 0.078125l0 5.5q0 0.90625 0.390625 1.265625q0.40625 0.359375 1.265625 0.359375l0.46875 0q0.1875 0 0.1875 0.1875l0 0.765625q0 0.1875 -0.1875 0.1875q-0.21875 0.015625 -0.6875 0.015625q-1.34375 0 -2.03125 -0.5q-0.6875 -0.5 -0.6875 -1.859375l0 -5.921875q0 -0.078125 -0.078125 -0.078125l-1.140625 0q-0.1875 0 -0.1875 -0.1875l0 -0.71875q0 -0.1875 0.1875 -0.1875l1.140625 0q0.078125 0 0.078125 -0.078125l0 -2.15625q0 -0.1875 0.171875 -0.1875l0.921875 0q0.1875 0 0.1875 0.1875l0 2.15625q0 0.078125 0.078125 0.078125l2.109375 0q0.1875 0 0.1875 0.1875l0 0.71875zm6.4627686 -1.046875q1.5 0 2.375 0.890625q0.890625 0.875 0.890625 2.34375l0 6.15625q0 0.1875 -0.1875 0.1875l-0.953125 0q-0.1875 0 -0.1875 -0.1875l0 -5.890625q0 -1.03125 -0.625 -1.671875q-0.625 -0.65625 -1.609375 -0.65625q-1.03125 0 -1.671875 0.640625q-0.625 0.625 -0.625 1.640625l0 5.9375q0 0.1875 -0.1875 0.1875l-0.953125 0q-0.171875 0 -0.171875 -0.1875l0 -12.6875q0 -0.1875 0.171875 -0.1875l0.953125 0q0.1875 0 0.1875 0.1875l0 4.421875q0 0.046875 0.03125 0.0625q0.03125 0.015625 0.046875 -0.015625q0.828125 -1.171875 2.515625 -1.171875zm13.474457 9.734375q-1.34375 0 -2.3125 -0.6875q-0.96875 -0.703125 -1.34375 -1.90625q-0.265625 -0.859375 -0.265625 -2.296875q0 -1.4375 0.265625 -2.28125q0.359375 -1.1875 1.328125 -1.875q0.96875 -0.703125 2.34375 -0.703125q1.328125 0 2.28125 0.703125q0.96875 0.6875 1.328125 1.859375q0.25 0.796875 0.25 2.296875q0 1.5 -0.25 2.296875q-0.359375 1.203125 -1.328125 1.90625q-0.953125 0.6875 -2.296875 0.6875zm0 -1.15625q0.890625 0 1.515625 -0.5q0.640625 -0.5 0.875 -1.328125q0.171875 -0.671875 0.171875 -1.890625q0 -1.234375 -0.15625 -1.890625q-0.21875 -0.828125 -0.875 -1.328125q-0.640625 -0.5 -1.546875 -0.5q-0.921875 0 -1.5625 0.5q-0.625 0.5 -0.84375 1.328125q-0.15625 0.65625 -0.15625 1.890625q0 1.234375 0.15625 1.890625q0.203125 0.828125 0.84375 1.328125q0.640625 0.5 1.578125 0.5zm12.277039 -8.25q0 -0.1875 0.1875 -0.1875l0.953125 0q0.1875 0 0.1875 0.1875l0 9.0625q0 0.1875 -0.1875 0.1875l-0.953125 0q-0.1875 0 -0.1875 -0.1875l0 -0.796875q0 -0.046875 -0.046875 -0.0625q-0.03125 -0.015625 -0.046875 0.015625q-0.78125 1.15625 -2.484375 1.15625q-0.890625 0 -1.65625 -0.359375q-0.75 -0.359375 -1.1875 -1.046875q-0.4375 -0.703125 -0.4375 -1.671875l0 -6.296875q0 -0.1875 0.1875 -0.1875l0.953125 0q0.1875 0 0.1875 0.1875l0 5.90625q0 1.0625 0.59375 1.6875q0.59375 0.625 1.625 0.625q1.0625 0 1.6875 -0.625q0.625 -0.640625 0.625 -1.6875l0 -5.90625zm8.093506 -0.28125q0.609375 0 1.0625 0.234375q0.15625 0.078125 0.109375 0.25l-0.203125 0.90625q-0.046875 0.1875 -0.234375 0.125q-0.328125 -0.140625 -0.734375 -0.140625l-0.234375 0.015625q-0.984375 0.046875 -1.625 0.734375q-0.625 0.671875 -0.625 1.71875l0 5.5q0 0.1875 -0.1875 0.1875l-0.953125 0q-0.171875 0 -0.171875 -0.1875l0 -9.0625q0 -0.1875 0.171875 -0.1875l0.953125 0q0.1875 0 0.1875 0.1875l0 1.140625q0 0.046875 0.03125 0.0625q0.03125 0 0.046875 -0.03125q0.390625 -0.6875 1.0 -1.0625q0.609375 -0.390625 1.40625 -0.390625zm9.97525 -0.0625q1.6875 0 2.59375 0.859375q0.921875 0.859375 0.921875 2.28125l0 6.265625q0 0.1875 -0.1875 0.1875l-0.953125 0q-0.1875 0 -0.1875 -0.1875l0 -0.765625q0 -0.03125 -0.03125 -0.046875q-0.015625 -0.03125 -0.0625 0.015625q-0.46875 0.5625 -1.21875 0.859375q-0.734375 0.28125 -1.65625 0.28125q-1.3125 0 -2.21875 -0.671875q-0.890625 -0.671875 -0.890625 -2.0625q0 -1.390625 1.015625 -2.203125q1.015625 -0.8125 2.828125 -0.8125l2.15625 0q0.078125 0 0.078125 -0.078125l0 -0.703125q0 -0.953125 -0.53125 -1.5q-0.53125 -0.5625 -1.65625 -0.5625q-0.890625 0 -1.453125 0.34375q-0.546875 0.34375 -0.6875 0.96875q-0.046875 0.1875 -0.21875 0.171875l-1.015625 -0.140625q-0.203125 -0.03125 -0.15625 -0.140625q0.140625 -1.046875 1.109375 -1.703125q0.96875 -0.65625 2.421875 -0.65625zm-0.515625 8.609375q1.09375 0 1.890625 -0.546875q0.8125 -0.5625 0.8125 -1.484375l0 -1.46875q0 -0.0625 -0.078125 -0.0625l-1.953125 0q-1.234375 0 -1.984375 0.5q-0.734375 0.5 -0.734375 1.390625q0 0.828125 0.5625 1.25q0.578125 0.421875 1.484375 0.421875zm14.127106 -6.109375q0.28125 0.90625 0.28125 2.375q0 1.484375 -0.25 2.3125q-0.328125 1.1875 -1.21875 1.875q-0.890625 0.6875 -2.234375 0.6875q-0.71875 0 -1.34375 -0.28125q-0.609375 -0.296875 -1.015625 -0.84375q-0.046875 -0.03125 -0.078125 -0.015625q-0.015625 0 -0.015625 0.03125l0 4.390625q0 0.1875 -0.1875 0.1875l-0.953125 0q-0.1875 0 -0.1875 -0.1875l0 -12.6875q0 -0.1875 0.1875 -0.1875l0.953125 0q0.1875 0 0.1875 0.1875l0 0.78125q0 0.03125 0.015625 0.046875q0.03125 0.015625 0.078125 -0.03125q0.40625 -0.546875 1.015625 -0.84375q0.609375 -0.296875 1.34375 -0.296875q1.3125 0 2.1875 0.671875q0.890625 0.671875 1.234375 1.828125zm-1.484375 4.71875q0.21875 -0.40625 0.3125 -0.921875q0.109375 -0.515625 0.109375 -1.421875q0 -0.875 -0.078125 -1.359375q-0.078125 -0.5 -0.265625 -0.90625q-0.21875 -0.671875 -0.796875 -1.0625q-0.5625 -0.390625 -1.34375 -0.390625q-0.75 0 -1.25 0.390625q-0.5 0.390625 -0.75 1.046875q-0.171875 0.375 -0.25 0.890625q-0.0625 0.5 -0.0625 1.390625q0 0.890625 0.0625 1.40625q0.078125 0.515625 0.265625 0.90625q0.234375 0.640625 0.734375 1.03125q0.515625 0.375 1.234375 0.375q0.734375 0 1.28125 -0.375q0.5625 -0.375 0.796875 -1.0zm11.782623 -4.71875q0.28125 0.90625 0.28125 2.375q0 1.484375 -0.25 2.3125q-0.328125 1.1875 -1.21875 1.875q-0.890625 0.6875 -2.234375 0.6875q-0.71875 0 -1.34375 -0.28125q-0.609375 -0.296875 -1.015625 -0.84375q-0.046875 -0.03125 -0.078125 -0.015625q-0.015625 0 -0.015625 0.03125l0 4.390625q0 0.1875 -0.1875 0.1875l-0.953125 0q-0.1875 0 -0.1875 -0.1875l0 -12.6875q0 -0.1875 0.1875 -0.1875l0.953125 0q0.1875 0 0.1875 0.1875l0 0.78125q0 0.03125 0.015625 0.046875q0.03125 0.015625 0.078125 -0.03125q0.40625 -0.546875 1.015625 -0.84375q0.609375 -0.296875 1.34375 -0.296875q1.3125 0 2.1875 0.671875q0.890625 0.671875 1.234375 1.828125zm-1.484375 4.71875q0.21875 -0.40625 0.3125 -0.921875q0.109375 -0.515625 0.109375 -1.421875q0 -0.875 -0.078125 -1.359375q-0.078125 -0.5 -0.265625 -0.90625q-0.21875 -0.671875 -0.796875 -1.0625q-0.5625 -0.390625 -1.34375 -0.390625q-0.75 0 -1.25 0.390625q-0.5 0.390625 -0.75 1.046875q-0.171875 0.375 -0.25 0.890625q-0.0625 0.5 -0.0625 1.390625q0 0.890625 0.0625 1.40625q0.078125 0.515625 0.265625 0.90625q0.234375 0.640625 0.734375 1.03125q0.515625 0.375 1.234375 0.375q0.734375 0 1.28125 -0.375q0.5625 -0.375 0.796875 -1.0z" fill-rule="nonzero"/><path fill="#000000" fill-opacity="0.0" d="m575.5261 344.96808l124.944885 0l0 29.259857l-124.944885 0z" fill-rule="evenodd"/><path fill="#000000" d="m605.35406 352.99988l-4.984375 14.078125l-4.3125 0l-5.015625 -14.078125l3.859375 0l2.578125 8.515625l0.78125 2.765625l0.734375 -2.734375l2.625 -8.546875l3.734375 0zm3.2390137 2.171875q-1.109375 0 -1.609375 -0.40625q-0.5 -0.421875 -0.5 -1.3125q0 -0.921875 0.5 -1.328125q0.5 -0.421875 1.609375 -0.421875q1.09375 0 1.59375 0.421875q0.515625 0.40625 0.515625 1.328125q0 0.890625 -0.515625 1.3125q-0.5 0.40625 -1.59375 0.40625zm1.8125 1.234375l0 10.671875l-3.625 0l0 -10.671875l3.625 0zm7.065918 10.890625q-1.59375 0 -2.984375 -0.515625q-1.375 -0.53125 -2.265625 -1.515625l1.703125 -2.0q0.53125 0.671875 1.421875 1.140625q0.890625 0.453125 1.96875 0.453125q0.671875 0 1.09375 -0.1875q0.421875 -0.203125 0.421875 -0.59375q0 -0.3125 -0.21875 -0.484375q-0.203125 -0.1875 -0.84375 -0.3125l-1.5 -0.296875q-2.0 -0.40625 -2.84375 -1.203125q-0.84375 -0.796875 -0.84375 -2.109375q0 -0.875 0.53125 -1.671875q0.546875 -0.796875 1.65625 -1.296875q1.109375 -0.5 2.828125 -0.5q1.625 0 2.859375 0.46875q1.234375 0.46875 1.96875 1.359375l-1.734375 1.96875q-0.515625 -0.640625 -1.328125 -1.0q-0.796875 -0.375 -1.609375 -0.375q-0.515625 0 -0.875 0.109375q-0.34375 0.09375 -0.515625 0.265625q-0.171875 0.171875 -0.171875 0.421875q0 0.28125 0.265625 0.484375q0.265625 0.203125 1.0 0.34375l1.9375 0.390625q1.640625 0.296875 2.359375 1.09375q0.734375 0.78125 0.734375 1.890625q0 1.046875 -0.5625 1.875q-0.546875 0.828125 -1.65625 1.3125q-1.109375 0.484375 -2.796875 0.484375zm10.49292 0q-1.09375 0 -1.921875 -0.375q-0.8125 -0.375 -1.28125 -1.203125q-0.46875 -0.84375 -0.46875 -2.1875l0 -7.125l3.625 0l0 6.28125q0 1.015625 0.40625 1.421875q0.40625 0.40625 1.15625 0.40625q0.375 0 0.71875 -0.140625q0.34375 -0.140625 0.59375 -0.421875q0.265625 -0.28125 0.40625 -0.734375q0.140625 -0.46875 0.140625 -1.09375l0 -5.71875l3.625 0l0 10.671875l-3.25 0l-0.109375 -2.0q-0.5 1.125 -1.421875 1.671875q-0.921875 0.546875 -2.21875 0.546875zm15.545898 -6.984375q0 -0.734375 -0.421875 -1.171875q-0.40625 -0.4375 -1.109375 -0.4375q-0.703125 0 -1.203125 0.359375q-0.5 0.34375 -0.703125 1.234375l-3.0625 -0.71875q0.296875 -1.546875 1.578125 -2.453125q1.28125 -0.921875 3.59375 -0.921875q1.5625 0 2.65625 0.46875q1.109375 0.453125 1.6875 1.359375q0.59375 0.90625 0.59375 2.21875l0 3.90625q0 0.828125 0.75 0.828125q0.375 0 0.609375 -0.078125l-0.21875 2.0625q-0.625 0.296875 -1.546875 0.296875q-0.828125 0 -1.46875 -0.265625q-0.640625 -0.265625 -1.015625 -0.796875q-0.359375 -0.546875 -0.359375 -1.390625l0 -0.125l0.40625 -0.140625q0 0.90625 -0.546875 1.53125q-0.53125 0.609375 -1.40625 0.921875q-0.859375 0.296875 -1.796875 0.296875q-1.09375 0 -1.90625 -0.34375q-0.796875 -0.34375 -1.234375 -0.984375q-0.4375 -0.65625 -0.4375 -1.625q0 -1.140625 0.6875 -1.890625q0.6875 -0.765625 2.1875 -1.0625l4.03125 -0.84375l-0.015625 1.921875l-2.046875 0.421875q-0.640625 0.140625 -0.953125 0.390625q-0.3125 0.234375 -0.3125 0.71875q0 0.46875 0.34375 0.703125q0.34375 0.234375 0.8125 0.234375q0.359375 0 0.6875 -0.09375q0.328125 -0.109375 0.578125 -0.328125q0.265625 -0.234375 0.40625 -0.5625q0.15625 -0.34375 0.15625 -0.828125l0 -2.8125zm9.989685 -8.421875l0 11.5625q0 0.703125 0.234375 1.0q0.234375 0.296875 0.78125 0.296875q0.328125 0 0.53125 -0.03125q0.21875 -0.046875 0.515625 -0.140625l-0.234375 2.1875q-0.390625 0.234375 -1.015625 0.375q-0.609375 0.15625 -1.203125 0.15625q-1.703125 0 -2.46875 -0.78125q-0.765625 -0.796875 -0.765625 -2.59375l0 -12.03125l3.625 0zm5.193054 3.28125q-1.109375 0 -1.609375 -0.40625q-0.5 -0.421875 -0.5 -1.3125q0 -0.921875 0.5 -1.328125q0.5 -0.421875 1.609375 -0.421875q1.09375 0 1.59375 0.421875q0.515625 0.40625 0.515625 1.328125q0 0.890625 -0.515625 1.3125q-0.5 0.40625 -1.59375 0.40625zm1.8125 1.234375l0 10.671875l-3.625 0l0 -10.671875l3.625 0zm2.034607 10.671875l0 -2.21875l4.234375 -4.8125l1.140625 -1.140625l-1.6875 0.046875l-3.640625 0l0 -2.546875l9.328125 0l0 2.21875l-4.171875 4.78125l-1.171875 1.171875l1.875 -0.03125l3.671875 0l0 2.53125l-9.578125 0zm16.691406 0.21875q-1.765625 0 -3.0625 -0.65625q-1.28125 -0.671875 -1.984375 -1.90625q-0.703125 -1.234375 -0.703125 -2.984375q0 -1.75 0.703125 -2.984375q0.703125 -1.25 1.96875 -1.90625q1.265625 -0.65625 2.90625 -0.65625q1.6875 0 2.875 0.65625q1.1875 0.640625 1.796875 1.78125q0.625 1.140625 0.625 2.609375q0 0.390625 -0.03125 0.78125q-0.015625 0.375 -0.0625 0.625l-8.4375 0l0 -1.9375l6.84375 0l-1.71875 0.671875q0 -1.28125 -0.46875 -1.96875q-0.453125 -0.6875 -1.421875 -0.6875q-0.671875 0 -1.15625 0.328125q-0.484375 0.3125 -0.734375 1.0q-0.234375 0.6875 -0.234375 1.75q0 1.046875 0.265625 1.703125q0.28125 0.640625 0.796875 0.9375q0.515625 0.28125 1.234375 0.28125q0.8125 0 1.296875 -0.3125q0.484375 -0.328125 0.71875 -0.90625l2.890625 0.953125q-0.296875 0.921875 -1.03125 1.5625q-0.734375 0.625 -1.75 0.953125q-1.015625 0.3125 -2.125 0.3125z" fill-rule="nonzero"/><path fill="#000000" fill-opacity="0.0" d="m561.92096 375.66364l152.15747 0l0 53.35431l-152.15747 0z" fill-rule="evenodd"/><path fill="#000000" d="m594.9875 398.1214q-1.953125 0 -3.09375 -0.875q-1.125 -0.890625 -1.125 -2.375l0 -0.53125q0 -0.171875 0.171875 -0.171875l0.84375 0q0.171875 0 0.171875 0.171875l0 0.46875q0 1.0 0.828125 1.625q0.84375 0.609375 2.3125 0.609375q1.328125 0 2.015625 -0.5625q0.703125 -0.5625 0.703125 -1.5q0 -0.609375 -0.328125 -1.03125q-0.3125 -0.4375 -0.984375 -0.8125q-0.65625 -0.390625 -1.875 -0.890625q-1.296875 -0.515625 -2.015625 -0.90625q-0.71875 -0.390625 -1.171875 -1.0q-0.4375 -0.625 -0.4375 -1.5625q0 -1.453125 1.015625 -2.25q1.015625 -0.8125 2.78125 -0.8125q1.921875 0 3.03125 0.90625q1.109375 0.890625 1.109375 2.390625l0 0.375q0 0.171875 -0.171875 0.171875l-0.859375 0q-0.1875 0 -0.1875 -0.171875l0 -0.3125q0 -1.0 -0.78125 -1.640625q-0.78125 -0.640625 -2.1875 -0.640625q-1.234375 0 -1.890625 0.5q-0.65625 0.5 -0.65625 1.453125q0 0.625 0.3125 1.03125q0.328125 0.40625 0.921875 0.71875q0.59375 0.296875 1.84375 0.78125q1.265625 0.515625 2.03125 0.96875q0.78125 0.453125 1.25 1.109375q0.484375 0.640625 0.484375 1.578125q0 1.453125 -1.078125 2.328125q-1.078125 0.859375 -2.984375 0.859375zm11.682068 -8.734375q0 -0.171875 0.171875 -0.171875l0.890625 0q0.171875 0 0.171875 0.171875l0 8.421875q0 0.171875 -0.171875 0.171875l-0.890625 0q-0.171875 0 -0.171875 -0.171875l0 -0.75q0 -0.03125 -0.03125 -0.046875q-0.03125 -0.015625 -0.046875 0.015625q-0.734375 1.078125 -2.3125 1.078125q-0.828125 0 -1.53125 -0.328125q-0.703125 -0.34375 -1.109375 -0.984375q-0.40625 -0.65625 -0.40625 -1.546875l0 -5.859375q0 -0.171875 0.171875 -0.171875l0.875 0q0.1875 0 0.1875 0.171875l0 5.484375q0 1.0 0.546875 1.578125q0.5625 0.578125 1.515625 0.578125q0.984375 0 1.5625 -0.578125q0.578125 -0.59375 0.578125 -1.578125l0 -5.484375zm12.865967 -0.296875q1.296875 0 2.046875 0.78125q0.75 0.78125 0.75 2.125l0 5.8125q0 0.171875 -0.171875 0.171875l-0.859375 0q-0.171875 0 -0.171875 -0.171875l0 -5.5625q0 -0.953125 -0.546875 -1.515625q-0.546875 -0.5625 -1.4375 -0.5625q-0.921875 0 -1.484375 0.5625q-0.5625 0.546875 -0.5625 1.484375l0 5.59375q0 0.171875 -0.171875 0.171875l-0.875 0q-0.171875 0 -0.171875 -0.171875l0 -5.5625q0 -0.953125 -0.546875 -1.515625q-0.53125 -0.5625 -1.4375 -0.5625q-0.921875 0 -1.46875 0.5625q-0.546875 0.546875 -0.546875 1.484375l0 5.59375q0 0.171875 -0.171875 0.171875l-0.875 0q-0.171875 0 -0.171875 -0.171875l0 -8.421875q0 -0.171875 0.171875 -0.171875l0.875 0q0.171875 0 0.171875 0.171875l0 0.6875q0 0.046875 0.03125 0.0625q0.03125 0 0.0625 -0.046875q0.375 -0.5 0.96875 -0.75q0.609375 -0.25 1.328125 -0.25q0.90625 0 1.546875 0.375q0.640625 0.359375 0.96875 1.046875q0.046875 0.09375 0.09375 0q0.375 -0.703125 1.0625 -1.0625q0.703125 -0.359375 1.59375 -0.359375zm14.330261 0q1.296875 0 2.046875 0.78125q0.75 0.78125 0.75 2.125l0 5.8125q0 0.171875 -0.171875 0.171875l-0.859375 0q-0.171875 0 -0.171875 -0.171875l0 -5.5625q0 -0.953125 -0.546875 -1.515625q-0.546875 -0.5625 -1.4375 -0.5625q-0.921875 0 -1.484375 0.5625q-0.5625 0.546875 -0.5625 1.484375l0 5.59375q0 0.171875 -0.171875 0.171875l-0.875 0q-0.171875 0 -0.171875 -0.171875l0 -5.5625q0 -0.953125 -0.546875 -1.515625q-0.53125 -0.5625 -1.4375 -0.5625q-0.921875 0 -1.46875 0.5625q-0.546875 0.546875 -0.546875 1.484375l0 5.59375q0 0.171875 -0.171875 0.171875l-0.875 0q-0.171875 0 -0.171875 -0.171875l0 -8.421875q0 -0.171875 0.171875 -0.171875l0.875 0q0.171875 0 0.171875 0.171875l0 0.6875q0 0.046875 0.03125 0.0625q0.03125 0 0.0625 -0.046875q0.375 -0.5 0.96875 -0.75q0.609375 -0.25 1.328125 -0.25q0.90625 0 1.546875 0.375q0.640625 0.359375 0.96875 1.046875q0.046875 0.09375 0.09375 0q0.375 -0.703125 1.0625 -1.0625q0.703125 -0.359375 1.59375 -0.359375zm8.486572 -0.015625q1.5625 0 2.40625 0.796875q0.84375 0.796875 0.84375 2.109375l0 5.828125q0 0.171875 -0.171875 0.171875l-0.875 0q-0.171875 0 -0.171875 -0.171875l0 -0.71875q0 -0.03125 -0.03125 -0.046875q-0.03125 -0.015625 -0.0625 0.015625q-0.4375 0.515625 -1.125 0.796875q-0.6875 0.265625 -1.546875 0.265625q-1.234375 0 -2.0625 -0.625q-0.828125 -0.625 -0.828125 -1.90625q0 -1.296875 0.9375 -2.046875q0.953125 -0.765625 2.625 -0.765625l2.015625 0q0.078125 0 0.078125 -0.0625l0 -0.65625q0 -0.890625 -0.5 -1.390625q-0.5 -0.515625 -1.53125 -0.515625q-0.828125 0 -1.359375 0.328125q-0.515625 0.3125 -0.640625 0.875q-0.046875 0.171875 -0.203125 0.15625l-0.9375 -0.109375q-0.1875 -0.046875 -0.15625 -0.140625q0.140625 -0.96875 1.03125 -1.578125q0.90625 -0.609375 2.265625 -0.609375zm-0.484375 7.984375q1.015625 0 1.765625 -0.5q0.75 -0.515625 0.75 -1.390625l0 -1.34375q0 -0.078125 -0.078125 -0.078125l-1.8125 0q-1.15625 0 -1.84375 0.46875q-0.6875 0.46875 -0.6875 1.3125q0 0.75 0.515625 1.140625q0.53125 0.390625 1.390625 0.390625zm9.838989 -7.9375q0.578125 0 0.984375 0.234375q0.140625 0.0625 0.109375 0.21875l-0.1875 0.84375q-0.0625 0.1875 -0.234375 0.109375q-0.296875 -0.125 -0.671875 -0.125l-0.21875 0.015625q-0.90625 0.046875 -1.5 0.6875q-0.59375 0.625 -0.59375 1.59375l0 5.109375q0 0.171875 -0.171875 0.171875l-0.875 0q-0.171875 0 -0.171875 -0.171875l0 -8.421875q0 -0.171875 0.171875 -0.171875l0.875 0q0.171875 0 0.171875 0.171875l0 1.0625q0 0.046875 0.03125 0.0625q0.03125 0 0.046875 -0.03125q0.359375 -0.640625 0.921875 -1.0q0.5625 -0.359375 1.3125 -0.359375zm2.8552246 12.328125q-0.125 0 -0.125 -0.171875l0 -0.703125q0 -0.171875 0.1875 -0.171875l0.0625 0q0.671875 -0.015625 1.046875 -0.203125q0.375 -0.171875 0.640625 -0.671875q0.265625 -0.484375 0.578125 -1.5q0.03125 -0.0625 0 -0.09375l-2.921875 -8.53125l-0.015625 -0.0625q0 -0.125 0.15625 -0.125l0.90625 0q0.15625 0 0.21875 0.140625l2.25 7.0q0.015625 0.03125 0.046875 0.03125q0.046875 0 0.0625 -0.03125l2.21875 -7.0q0.046875 -0.140625 0.203125 -0.140625l0.90625 0q0.1875 0 0.125 0.1875l-3.203125 9.34375q-0.40625 1.15625 -0.78125 1.703125q-0.359375 0.5625 -0.90625 0.78125q-0.546875 0.21875 -1.53125 0.21875l-0.125 0zm15.328796 -14.53125q-0.953125 0 -1.3125 0.4375q-0.34375 0.421875 -0.34375 1.4375l0 0.34375q0 0.078125 0.078125 0.078125l1.9375 0q0.171875 0 0.171875 0.171875l0 0.78125q0 0.171875 -0.171875 0.171875l-1.9375 0q-0.078125 0 -0.078125 0.0625l0 7.40625q0 0.171875 -0.171875 0.171875l-0.859375 0q-0.171875 0 -0.171875 -0.171875l0 -7.40625q0 -0.0625 -0.078125 -0.0625l-1.15625 0q-0.171875 0 -0.171875 -0.171875l0 -0.78125q0 -0.171875 0.171875 -0.171875l1.15625 0q0.078125 0 0.078125 -0.078125l0 -0.40625q0 -1.078125 0.234375 -1.6875q0.25 -0.625 0.84375 -0.90625q0.59375 -0.28125 1.671875 -0.28125l0.5 0q0.171875 0 0.171875 0.171875l0 0.71875q0 0.171875 -0.171875 0.171875l-0.390625 0zm5.229126 11.203125q-1.25 0 -2.15625 -0.640625q-0.890625 -0.640625 -1.25 -1.765625q-0.234375 -0.796875 -0.234375 -2.140625q0 -1.328125 0.234375 -2.109375q0.328125 -1.109375 1.234375 -1.75q0.90625 -0.640625 2.1875 -0.640625q1.234375 0 2.125 0.640625q0.890625 0.640625 1.21875 1.734375q0.234375 0.75 0.234375 2.125q0 1.40625 -0.234375 2.140625q-0.328125 1.125 -1.21875 1.765625q-0.890625 0.640625 -2.140625 0.640625zm0 -1.078125q0.828125 0 1.40625 -0.453125q0.59375 -0.46875 0.8125 -1.25q0.15625 -0.609375 0.15625 -1.75q0 -1.140625 -0.140625 -1.75q-0.203125 -0.765625 -0.8125 -1.21875q-0.59375 -0.46875 -1.4375 -0.46875q-0.859375 0 -1.453125 0.46875q-0.578125 0.453125 -0.78125 1.21875q-0.140625 0.609375 -0.140625 1.75q0 1.15625 0.140625 1.75q0.1875 0.78125 0.78125 1.25q0.59375 0.453125 1.46875 0.453125zm9.631287 -7.921875q0.578125 0 0.984375 0.234375q0.140625 0.0625 0.109375 0.21875l-0.1875 0.84375q-0.0625 0.1875 -0.234375 0.109375q-0.296875 -0.125 -0.671875 -0.125l-0.21875 0.015625q-0.90625 0.046875 -1.5 0.6875q-0.59375 0.625 -0.59375 1.59375l0 5.109375q0 0.171875 -0.171875 0.171875l-0.875 0q-0.171875 0 -0.171875 -0.171875l0 -8.421875q0 -0.171875 0.171875 -0.171875l0.875 0q0.171875 0 0.171875 0.171875l0 1.0625q0 0.046875 0.03125 0.0625q0.03125 0 0.046875 -0.03125q0.359375 -0.640625 0.921875 -1.0q0.5625 -0.359375 1.3125 -0.359375z" fill-rule="nonzero"/><path fill="#000000" d="m602.4158 407.7464q0 0.171875 -0.1875 0.171875l-6.359375 0q-0.0625 0 -0.0625 0.078125l0 4.28125q0 0.0625 0.0625 0.0625l4.453125 0q0.1875 0 0.1875 0.171875l0 0.734375q0 0.171875 -0.1875 0.171875l-4.453125 0q-0.0625 0 -0.0625 0.0625l0 5.328125q0 0.171875 -0.171875 0.171875l-0.890625 0q-0.171875 0 -0.171875 -0.171875l0 -11.78125q0 -0.171875 0.171875 -0.171875l7.484375 0q0.1875 0 0.1875 0.171875l0 0.71875zm4.414612 11.375q-1.25 0 -2.15625 -0.640625q-0.890625 -0.640625 -1.25 -1.765625q-0.234375 -0.796875 -0.234375 -2.140625q0 -1.328125 0.234375 -2.109375q0.328125 -1.109375 1.234375 -1.75q0.90625 -0.640625 2.1875 -0.640625q1.234375 0 2.125 0.640625q0.890625 0.640625 1.21875 1.734375q0.234375 0.75 0.234375 2.125q0 1.40625 -0.234375 2.140625q-0.328125 1.125 -1.21875 1.765625q-0.890625 0.640625 -2.140625 0.640625zm0 -1.078125q0.828125 0 1.40625 -0.453125q0.59375 -0.46875 0.8125 -1.25q0.15625 -0.609375 0.15625 -1.75q0 -1.140625 -0.140625 -1.75q-0.203125 -0.765625 -0.8125 -1.21875q-0.59375 -0.46875 -1.4375 -0.46875q-0.859375 0 -1.453125 0.46875q-0.578125 0.453125 -0.78125 1.21875q-0.140625 0.609375 -0.140625 1.75q0 1.15625 0.140625 1.75q0.1875 0.78125 0.78125 1.25q0.59375 0.453125 1.46875 0.453125zm9.631287 -7.921875q0.578125 0 0.984375 0.234375q0.140625 0.0625 0.109375 0.21875l-0.1875 0.84375q-0.0625 0.1875 -0.234375 0.109375q-0.296875 -0.125 -0.671875 -0.125l-0.21875 0.015625q-0.90625 0.046875 -1.5 0.6875q-0.59375 0.625 -0.59375 1.59375l0 5.109375q0 0.171875 -0.171875 0.171875l-0.875 0q-0.171875 0 -0.171875 -0.171875l0 -8.421875q0 -0.171875 0.171875 -0.171875l0.875 0q0.171875 0 0.171875 0.171875l0 1.0625q0 0.046875 0.03125 0.0625q0.03125 0 0.046875 -0.03125q0.359375 -0.640625 0.921875 -1.0q0.5625 -0.359375 1.3125 -0.359375zm9.408203 3.0q0.0625 0.484375 0.0625 1.21875l0 0.546875q0 0.171875 -0.171875 0.171875l-5.59375 0q-0.0625 0 -0.0625 0.078125q0.03125 0.953125 0.09375 1.234375q0.203125 0.765625 0.8125 1.21875q0.625 0.453125 1.609375 0.453125q0.71875 0 1.265625 -0.328125q0.5625 -0.328125 0.875 -0.9375q0.109375 -0.15625 0.25 -0.0625l0.671875 0.390625q0.140625 0.09375 0.0625 0.25q-0.421875 0.828125 -1.296875 1.3125q-0.859375 0.46875 -1.984375 0.46875q-1.234375 -0.015625 -2.078125 -0.578125q-0.828125 -0.578125 -1.1875 -1.609375q-0.3125 -0.828125 -0.3125 -2.390625q0 -0.71875 0.015625 -1.171875q0.03125 -0.46875 0.140625 -0.828125q0.296875 -1.140625 1.1875 -1.8125q0.890625 -0.671875 2.15625 -0.671875q1.578125 0 2.421875 0.796875q0.859375 0.796875 1.0625 2.25zm-3.484375 -1.96875q-0.84375 0 -1.40625 0.4375q-0.5625 0.4375 -0.734375 1.1875q-0.109375 0.359375 -0.140625 1.171875q0 0.078125 0.0625 0.078125l4.484375 0q0.078125 0 0.078125 -0.078125q-0.03125 -0.78125 -0.109375 -1.109375q-0.1875 -0.765625 -0.765625 -1.21875q-0.578125 -0.46875 -1.46875 -0.46875zm9.313965 7.96875q-1.25 0 -2.15625 -0.640625q-0.890625 -0.65625 -1.21875 -1.765625q-0.21875 -0.765625 -0.21875 -2.15625q0 -1.25 0.21875 -2.109375q0.3125 -1.078125 1.21875 -1.71875q0.90625 -0.65625 2.15625 -0.65625q1.25 0 2.171875 0.640625q0.9375 0.640625 1.21875 1.59375q0.078125 0.3125 0.109375 0.515625l0 0.046875q0 0.109375 -0.15625 0.15625l-0.875 0.109375l-0.03125 0q-0.125 0 -0.15625 -0.15625l-0.046875 -0.25q-0.15625 -0.65625 -0.765625 -1.109375q-0.609375 -0.46875 -1.46875 -0.46875q-0.875 0 -1.453125 0.46875q-0.578125 0.453125 -0.75 1.203125q-0.15625 0.65625 -0.15625 1.75q0 1.15625 0.15625 1.765625q0.171875 0.78125 0.75 1.25q0.578125 0.453125 1.453125 0.453125q0.84375 0 1.453125 -0.4375q0.625 -0.4375 0.78125 -1.140625l0 -0.0625l0.015625 -0.078125q0.015625 -0.171875 0.203125 -0.140625l0.84375 0.140625q0.171875 0.046875 0.15625 0.203125l-0.0625 0.34375q-0.265625 1.0 -1.203125 1.625q-0.9375 0.625 -2.1875 0.625zm8.72937 -9.046875q1.5625 0 2.40625 0.796875q0.84375 0.796875 0.84375 2.109375l0 5.828125q0 0.171875 -0.171875 0.171875l-0.875 0q-0.171875 0 -0.171875 -0.171875l0 -0.71875q0 -0.03125 -0.03125 -0.046875q-0.03125 -0.015625 -0.0625 0.015625q-0.4375 0.515625 -1.125 0.796875q-0.6875 0.265625 -1.546875 0.265625q-1.234375 0 -2.0625 -0.625q-0.828125 -0.625 -0.828125 -1.90625q0 -1.296875 0.9375 -2.046875q0.953125 -0.765625 2.625 -0.765625l2.015625 0q0.078125 0 0.078125 -0.0625l0 -0.65625q0 -0.890625 -0.5 -1.390625q-0.5 -0.515625 -1.53125 -0.515625q-0.828125 0 -1.359375 0.328125q-0.515625 0.3125 -0.640625 0.875q-0.046875 0.171875 -0.203125 0.15625l-0.9375 -0.109375q-0.1875 -0.046875 -0.15625 -0.140625q0.140625 -0.96875 1.03125 -1.578125q0.90625 -0.609375 2.265625 -0.609375zm-0.484375 7.984375q1.015625 0 1.765625 -0.5q0.75 -0.515625 0.75 -1.390625l0 -1.34375q0 -0.078125 -0.078125 -0.078125l-1.8125 0q-1.15625 0 -1.84375 0.46875q-0.6875 0.46875 -0.6875 1.3125q0 0.75 0.515625 1.140625q0.53125 0.390625 1.390625 0.390625zm9.182739 1.015625q-0.96875 0 -1.734375 -0.3125q-0.75 -0.3125 -1.15625 -0.828125q-0.40625 -0.53125 -0.40625 -1.171875l0 -0.203125q0 -0.171875 0.171875 -0.171875l0.828125 0q0.1875 0 0.1875 0.171875l0 0.140625q0 0.5625 0.59375 1.0q0.59375 0.421875 1.5 0.421875q0.890625 0 1.4375 -0.40625q0.5625 -0.421875 0.5625 -1.03125q0 -0.4375 -0.28125 -0.71875q-0.28125 -0.28125 -0.671875 -0.4375q-0.390625 -0.15625 -1.203125 -0.390625q-0.96875 -0.28125 -1.59375 -0.546875q-0.625 -0.28125 -1.0625 -0.78125q-0.421875 -0.5 -0.421875 -1.25q0 -1.109375 0.859375 -1.765625q0.875 -0.671875 2.296875 -0.671875q0.953125 0 1.6875 0.3125q0.75 0.3125 1.140625 0.859375q0.40625 0.546875 0.40625 1.21875l0 0.0625q0 0.171875 -0.1875 0.171875l-0.8125 0q-0.171875 0 -0.171875 -0.171875l0 -0.0625q0 -0.578125 -0.5625 -0.96875q-0.5625 -0.40625 -1.515625 -0.40625q-0.875 0 -1.421875 0.359375q-0.53125 0.34375 -0.53125 0.96875q0 0.59375 0.515625 0.90625q0.515625 0.3125 1.609375 0.625q1.015625 0.28125 1.625 0.546875q0.625 0.265625 1.078125 0.765625q0.453125 0.484375 0.453125 1.28125q0 1.125 -0.890625 1.8125q-0.875 0.671875 -2.328125 0.671875zm9.364319 -8.015625q0 0.171875 -0.171875 0.171875l-1.953125 0q-0.0625 0 -0.0625 0.078125l0 5.109375q0 0.828125 0.359375 1.171875q0.375 0.328125 1.171875 0.328125l0.4375 0q0.171875 0 0.171875 0.171875l0 0.71875q0 0.171875 -0.171875 0.171875q-0.203125 0.015625 -0.640625 0.015625q-1.25 0 -1.890625 -0.46875q-0.640625 -0.46875 -0.640625 -1.734375l0 -5.484375q0 -0.078125 -0.0625 -0.078125l-1.0625 0q-0.171875 0 -0.171875 -0.171875l0 -0.671875q0 -0.171875 0.171875 -0.171875l1.0625 0q0.0625 0 0.0625 -0.078125l0 -2.0q0 -0.171875 0.171875 -0.171875l0.859375 0q0.171875 0 0.171875 0.171875l0 2.0q0 0.078125 0.0625 0.078125l1.953125 0q0.171875 0 0.171875 0.171875l0 0.671875zm8.844238 2.0625q0.0625 0.484375 0.0625 1.21875l0 0.546875q0 0.171875 -0.171875 0.171875l-5.59375 0q-0.0625 0 -0.0625 0.078125q0.03125 0.953125 0.09375 1.234375q0.203125 0.765625 0.8125 1.21875q0.625 0.453125 1.609375 0.453125q0.71875 0 1.265625 -0.328125q0.5625 -0.328125 0.875 -0.9375q0.109375 -0.15625 0.25 -0.0625l0.671875 0.390625q0.140625 0.09375 0.0625 0.25q-0.421875 0.828125 -1.296875 1.3125q-0.859375 0.46875 -1.984375 0.46875q-1.234375 -0.015625 -2.078125 -0.578125q-0.828125 -0.578125 -1.1875 -1.609375q-0.3125 -0.828125 -0.3125 -2.390625q0 -0.71875 0.015625 -1.171875q0.03125 -0.46875 0.140625 -0.828125q0.296875 -1.140625 1.1875 -1.8125q0.890625 -0.671875 2.15625 -0.671875q1.578125 0 2.421875 0.796875q0.859375 0.796875 1.0625 2.25zm-3.484375 -1.96875q-0.84375 0 -1.40625 0.4375q-0.5625 0.4375 -0.734375 1.1875q-0.109375 0.359375 -0.140625 1.171875q0 0.078125 0.0625 0.078125l4.484375 0q0.078125 0 0.078125 -0.078125q-0.03125 -0.78125 -0.109375 -1.109375q-0.1875 -0.765625 -0.765625 -1.21875q-0.578125 -0.46875 -1.46875 -0.46875zm9.532715 -1.03125q0.578125 0 0.984375 0.234375q0.140625 0.0625 0.109375 0.21875l-0.1875 0.84375q-0.0625 0.1875 -0.234375 0.109375q-0.296875 -0.125 -0.671875 -0.125l-0.21875 0.015625q-0.90625 0.046875 -1.5 0.6875q-0.59375 0.625 -0.59375 1.59375l0 5.109375q0 0.171875 -0.171875 0.171875l-0.875 0q-0.171875 0 -0.171875 -0.171875l0 -8.421875q0 -0.171875 0.171875 -0.171875l0.875 0q0.171875 0 0.171875 0.171875l0 1.0625q0 0.046875 0.03125 0.0625q0.03125 0 0.046875 -0.03125q0.359375 -0.640625 0.921875 -1.0q0.5625 -0.359375 1.3125 -0.359375zm5.599182 8.953125q-0.96875 0 -1.734375 -0.3125q-0.75 -0.3125 -1.15625 -0.828125q-0.40625 -0.53125 -0.40625 -1.171875l0 -0.203125q0 -0.171875 0.171875 -0.171875l0.828125 0q0.1875 0 0.1875 0.171875l0 0.140625q0 0.5625 0.59375 1.0q0.59375 0.421875 1.5 0.421875q0.890625 0 1.4375 -0.40625q0.5625 -0.421875 0.5625 -1.03125q0 -0.4375 -0.28125 -0.71875q-0.28125 -0.28125 -0.671875 -0.4375q-0.390625 -0.15625 -1.203125 -0.390625q-0.96875 -0.28125 -1.59375 -0.546875q-0.625 -0.28125 -1.0625 -0.78125q-0.421875 -0.5 -0.421875 -1.25q0 -1.109375 0.859375 -1.765625q0.875 -0.671875 2.296875 -0.671875q0.953125 0 1.6875 0.3125q0.75 0.3125 1.140625 0.859375q0.40625 0.546875 0.40625 1.21875l0 0.0625q0 0.171875 -0.1875 0.171875l-0.8125 0q-0.171875 0 -0.171875 -0.171875l0 -0.0625q0 -0.578125 -0.5625 -0.96875q-0.5625 -0.40625 -1.515625 -0.40625q-0.875 0 -1.421875 0.359375q-0.53125 0.34375 -0.53125 0.96875q0 0.59375 0.515625 0.90625q0.515625 0.3125 1.609375 0.625q1.015625 0.28125 1.625 0.546875q0.625 0.265625 1.078125 0.765625q0.453125 0.484375 0.453125 1.28125q0 1.125 -0.890625 1.8125q-0.875 0.671875 -2.328125 0.671875z" fill-rule="nonzero"/><path fill="#000000" fill-opacity="0.0" d="m726.2651 177.85301l140.09448 0l0 29.259842l-140.09448 0z" fill-rule="evenodd"/><path fill="#000000" d="m753.6425 195.93169q-0.40625 1.46875 -1.296875 2.421875q-0.890625 0.953125 -2.140625 1.390625q-1.234375 0.4375 -2.71875 0.4375q-2.140625 0 -3.703125 -0.859375q-1.546875 -0.875 -2.390625 -2.484375q-0.828125 -1.625 -0.828125 -3.90625q0 -2.296875 0.828125 -3.90625q0.84375 -1.625 2.390625 -2.484375q1.5625 -0.875 3.671875 -0.875q1.484375 0 2.71875 0.421875q1.234375 0.421875 2.078125 1.28125q0.859375 0.84375 1.21875 2.1875l-3.21875 1.296875q-0.296875 -1.3125 -0.96875 -1.796875q-0.671875 -0.5 -1.6875 -0.5q-1.015625 0 -1.75 0.5q-0.734375 0.484375 -1.125 1.453125q-0.390625 0.96875 -0.390625 2.421875q0 1.421875 0.359375 2.40625q0.359375 0.984375 1.09375 1.46875q0.734375 0.484375 1.828125 0.484375q1.015625 0 1.734375 -0.5625q0.71875 -0.5625 0.96875 -1.734375l3.328125 0.9375zm6.868286 -6.84375q1.6875 0 2.953125 0.65625q1.265625 0.640625 1.984375 1.890625q0.71875 1.25 0.71875 3.0q0 1.75 -0.71875 3.0q-0.71875 1.234375 -1.984375 1.890625q-1.265625 0.65625 -2.953125 0.65625q-1.640625 0 -2.921875 -0.65625q-1.28125 -0.65625 -2.0 -1.890625q-0.703125 -1.25 -0.703125 -3.0q0 -1.75 0.703125 -3.0q0.71875 -1.25 2.0 -1.890625q1.28125 -0.65625 2.921875 -0.65625zm0 2.578125q-0.609375 0 -1.0625 0.296875q-0.453125 0.296875 -0.6875 0.96875q-0.234375 0.65625 -0.234375 1.703125q0 1.046875 0.234375 1.703125q0.234375 0.640625 0.6875 0.953125q0.453125 0.296875 1.0625 0.296875q0.640625 0 1.078125 -0.296875q0.453125 -0.3125 0.6875 -0.953125q0.234375 -0.65625 0.234375 -1.703125q0 -1.046875 -0.234375 -1.703125q-0.234375 -0.671875 -0.6875 -0.96875q-0.4375 -0.296875 -1.078125 -0.296875zm7.6974487 8.296875l0 -10.671875l3.25 0l0.1875 3.671875l-0.40625 -0.40625q0.21875 -1.140625 0.75 -1.90625q0.546875 -0.78125 1.359375 -1.171875q0.828125 -0.390625 1.859375 -0.390625q1.109375 0 1.921875 0.421875q0.828125 0.421875 1.296875 1.265625q0.46875 0.828125 0.46875 2.078125l0 7.109375l-3.625 0l0 -6.140625q0 -1.109375 -0.4375 -1.53125q-0.421875 -0.4375 -1.078125 -0.4375q-0.515625 0 -0.96875 0.25q-0.4375 0.25 -0.703125 0.78125q-0.25 0.53125 -0.25 1.421875l0 5.65625l-3.625 0zm17.628296 -14.0625l0 10.265625q0 0.765625 0.359375 1.09375q0.375 0.328125 1.046875 0.328125q0.5 0 0.875 -0.109375q0.375 -0.125 0.671875 -0.359375l0.390625 2.25q-0.53125 0.375 -1.34375 0.59375q-0.8125 0.21875 -1.671875 0.21875q-1.203125 0 -2.09375 -0.34375q-0.890625 -0.34375 -1.375 -1.09375q-0.46875 -0.75 -0.484375 -1.984375l0 -9.84375l3.625 -1.015625zm3.171875 3.390625l0 2.59375l-8.640625 0l0 -2.59375l8.640625 0zm1.6798096 10.671875l0 -10.671875l3.203125 0l0.15625 2.3125q0.40625 -1.203125 1.203125 -1.859375q0.796875 -0.65625 2.03125 -0.65625q0.40625 0 0.6875 0.0625q0.296875 0.0625 0.46875 0.171875l-0.359375 2.984375q-0.21875 -0.078125 -0.546875 -0.125q-0.328125 -0.0625 -0.796875 -0.0625q-0.640625 0 -1.203125 0.28125q-0.546875 0.265625 -0.890625 0.8125q-0.328125 0.546875 -0.328125 1.375l0 5.375l-3.625 0zm10.983582 -11.90625q-1.109375 0 -1.609375 -0.40625q-0.5 -0.421875 -0.5 -1.3125q0 -0.921875 0.5 -1.328125q0.5 -0.421875 1.609375 -0.421875q1.09375 0 1.59375 0.421875q0.515625 0.40625 0.515625 1.328125q0 0.890625 -0.515625 1.3125q-0.5 0.40625 -1.59375 0.40625zm1.8125 1.234375l0 10.671875l-3.625 0l0 -10.671875l3.625 0zm9.425293 10.890625q-1.03125 0 -1.84375 -0.46875q-0.796875 -0.46875 -1.3125 -1.296875q-0.5 -0.828125 -0.65625 -1.859375l0.34375 -0.453125l-0.1875 3.859375l-3.1875 0l0 -15.1875l3.625 0l0 7.875l-0.34375 -0.515625q0.3125 -1.328125 1.21875 -2.1875q0.921875 -0.859375 2.484375 -0.859375q1.234375 0 2.203125 0.65625q0.96875 0.65625 1.515625 1.90625q0.546875 1.25 0.546875 3.015625q0 1.734375 -0.5625 2.96875q-0.546875 1.234375 -1.53125 1.890625q-0.984375 0.65625 -2.3125 0.65625zm-1.25 -2.671875q0.9375 0 1.46875 -0.6875q0.53125 -0.703125 0.53125 -2.1875q0 -1.5 -0.53125 -2.1875q-0.53125 -0.703125 -1.46875 -0.703125q-0.625 0 -1.0625 0.359375q-0.4375 0.359375 -0.671875 1.0q-0.234375 0.625 -0.234375 1.546875q0 0.921875 0.234375 1.5625q0.234375 0.640625 0.6875 0.96875q0.453125 0.328125 1.046875 0.328125zm11.388428 2.671875q-1.09375 0 -1.921875 -0.375q-0.8125 -0.375 -1.28125 -1.203125q-0.46875 -0.84375 -0.46875 -2.1875l0 -7.125l3.625 0l0 6.28125q0 1.015625 0.40625 1.421875q0.40625 0.40625 1.15625 0.40625q0.375 0 0.71875 -0.140625q0.34375 -0.140625 0.59375 -0.421875q0.265625 -0.28125 0.40625 -0.734375q0.140625 -0.46875 0.140625 -1.09375l0 -5.71875l3.625 0l0 10.671875l-3.25 0l-0.109375 -2.0q-0.5 1.125 -1.421875 1.671875q-0.921875 0.546875 -2.21875 0.546875zm14.061523 -14.28125l0 10.265625q0 0.765625 0.359375 1.09375q0.375 0.328125 1.046875 0.328125q0.5 0 0.875 -0.109375q0.375 -0.125 0.671875 -0.359375l0.390625 2.25q-0.53125 0.375 -1.34375 0.59375q-0.8125 0.21875 -1.671875 0.21875q-1.203125 0 -2.09375 -0.34375q-0.890625 -0.34375 -1.375 -1.09375q-0.46875 -0.75 -0.484375 -1.984375l0 -9.84375l3.625 -1.015625zm3.171875 3.390625l0 2.59375l-8.640625 0l0 -2.59375l8.640625 0zm6.8829346 10.890625q-1.765625 0 -3.0625 -0.65625q-1.28125 -0.671875 -1.984375 -1.90625q-0.703125 -1.234375 -0.703125 -2.984375q0 -1.75 0.703125 -2.984375q0.703125 -1.25 1.96875 -1.90625q1.265625 -0.65625 2.90625 -0.65625q1.6875 0 2.875 0.65625q1.1875 0.640625 1.796875 1.78125q0.625 1.140625 0.625 2.609375q0 0.390625 -0.03125 0.78125q-0.015625 0.375 -0.0625 0.625l-8.4375 0l0 -1.9375l6.84375 0l-1.71875 0.671875q0 -1.28125 -0.46875 -1.96875q-0.453125 -0.6875 -1.421875 -0.6875q-0.671875 0 -1.15625 0.328125q-0.484375 0.3125 -0.734375 1.0q-0.234375 0.6875 -0.234375 1.75q0 1.046875 0.265625 1.703125q0.28125 0.640625 0.796875 0.9375q0.515625 0.28125 1.234375 0.28125q0.8125 0 1.296875 -0.3125q0.484375 -0.328125 0.71875 -0.90625l2.890625 0.953125q-0.296875 0.921875 -1.03125 1.5625q-0.734375 0.625 -1.75 0.953125q-1.015625 0.3125 -2.125 0.3125z" fill-rule="nonzero"/><path fill="#000000" fill-opacity="0.0" d="m720.247 208.54549l152.15747 0l0 45.952744l-152.15747 0z" fill-rule="evenodd"/><path fill="#000000" d="m759.65564 214.37935q0.1875 0 0.1875 0.1875l0 0.796875q0 0.1875 -0.1875 0.1875l-3.65625 0q-0.078125 0 -0.078125 0.078125l0 11.625q0 0.1875 -0.1875 0.1875l-0.953125 0q-0.171875 0 -0.171875 -0.1875l0 -11.625q0 -0.078125 -0.078125 -0.078125l-3.515625 0q-0.1875 0 -0.1875 -0.1875l0 -0.796875q0 -0.1875 0.1875 -0.1875l8.640625 0zm4.777466 13.21875q-1.34375 0 -2.3125 -0.6875q-0.96875 -0.703125 -1.34375 -1.90625q-0.265625 -0.859375 -0.265625 -2.296875q0 -1.4375 0.265625 -2.28125q0.359375 -1.1875 1.328125 -1.875q0.96875 -0.703125 2.34375 -0.703125q1.328125 0 2.28125 0.703125q0.96875 0.6875 1.328125 1.859375q0.25 0.796875 0.25 2.296875q0 1.5 -0.25 2.296875q-0.359375 1.203125 -1.328125 1.90625q-0.953125 0.6875 -2.296875 0.6875zm0 -1.15625q0.890625 0 1.515625 -0.5q0.640625 -0.5 0.875 -1.328125q0.171875 -0.671875 0.171875 -1.890625q0 -1.234375 -0.15625 -1.890625q-0.21875 -0.828125 -0.875 -1.328125q-0.640625 -0.5 -1.546875 -0.5q-0.921875 0 -1.5625 0.5q-0.625 0.5 -0.84375 1.328125q-0.15625 0.65625 -0.15625 1.890625q0 1.234375 0.15625 1.890625q0.203125 0.828125 0.84375 1.328125q0.640625 0.5 1.578125 0.5zm13.398926 1.09375q-1.046875 0 -1.859375 -0.328125q-0.8125 -0.34375 -1.25 -0.90625q-0.4375 -0.5625 -0.4375 -1.25l0 -0.21875q0 -0.1875 0.1875 -0.1875l0.890625 0q0.1875 0 0.1875 0.1875l0 0.140625q0 0.625 0.640625 1.078125q0.640625 0.453125 1.625 0.453125q0.96875 0 1.5625 -0.4375q0.59375 -0.4375 0.59375 -1.109375q0 -0.46875 -0.3125 -0.765625q-0.296875 -0.296875 -0.71875 -0.453125q-0.421875 -0.171875 -1.296875 -0.4375q-1.046875 -0.296875 -1.71875 -0.59375q-0.671875 -0.296875 -1.140625 -0.828125q-0.453125 -0.53125 -0.453125 -1.359375q0 -1.1875 0.9375 -1.890625q0.9375 -0.71875 2.46875 -0.71875q1.015625 0 1.8125 0.34375q0.796875 0.328125 1.21875 0.921875q0.4375 0.578125 0.4375 1.3125l0 0.046875q0 0.1875 -0.1875 0.1875l-0.875 0q-0.1875 0 -0.1875 -0.1875l0 -0.046875q0 -0.640625 -0.609375 -1.0625q-0.609375 -0.4375 -1.625 -0.4375q-0.953125 0 -1.53125 0.390625q-0.578125 0.375 -0.578125 1.046875q0 0.640625 0.546875 0.984375q0.5625 0.328125 1.75 0.65625q1.078125 0.3125 1.75 0.59375q0.671875 0.28125 1.15625 0.8125q0.484375 0.53125 0.484375 1.390625q0 1.21875 -0.953125 1.953125q-0.953125 0.71875 -2.515625 0.71875zm10.095642 -8.625q0 0.1875 -0.1875 0.1875l-2.109375 0q-0.078125 0 -0.078125 0.078125l0 5.5q0 0.90625 0.390625 1.265625q0.40625 0.359375 1.265625 0.359375l0.46875 0q0.1875 0 0.1875 0.1875l0 0.765625q0 0.1875 -0.1875 0.1875q-0.21875 0.015625 -0.6875 0.015625q-1.34375 0 -2.03125 -0.5q-0.6875 -0.5 -0.6875 -1.859375l0 -5.921875q0 -0.078125 -0.078125 -0.078125l-1.140625 0q-0.1875 0 -0.1875 -0.1875l0 -0.71875q0 -0.1875 0.1875 -0.1875l1.140625 0q0.078125 0 0.078125 -0.078125l0 -2.15625q0 -0.1875 0.171875 -0.1875l0.921875 0q0.1875 0 0.1875 0.1875l0 2.15625q0 0.078125 0.078125 0.078125l2.109375 0q0.1875 0 0.1875 0.1875l0 0.71875zm6.3533325 -1.0q0.609375 0 1.0625 0.234375q0.15625 0.078125 0.109375 0.25l-0.203125 0.90625q-0.046875 0.1875 -0.234375 0.125q-0.328125 -0.140625 -0.734375 -0.140625l-0.234375 0.015625q-0.984375 0.046875 -1.625 0.734375q-0.625 0.671875 -0.625 1.71875l0 5.5q0 0.1875 -0.1875 0.1875l-0.953125 0q-0.171875 0 -0.171875 -0.1875l0 -9.0625q0 -0.1875 0.171875 -0.1875l0.953125 0q0.1875 0 0.1875 0.1875l0 1.140625q0 0.046875 0.03125 0.0625q0.03125 0 0.046875 -0.03125q0.390625 -0.6875 1.0 -1.0625q0.609375 -0.390625 1.40625 -0.390625zm6.494446 9.6875q-1.34375 0 -2.3125 -0.6875q-0.96875 -0.703125 -1.34375 -1.90625q-0.265625 -0.859375 -0.265625 -2.296875q0 -1.4375 0.265625 -2.28125q0.359375 -1.1875 1.328125 -1.875q0.96875 -0.703125 2.34375 -0.703125q1.328125 0 2.28125 0.703125q0.96875 0.6875 1.328125 1.859375q0.25 0.796875 0.25 2.296875q0 1.5 -0.25 2.296875q-0.359375 1.203125 -1.328125 1.90625q-0.953125 0.6875 -2.296875 0.6875zm0 -1.15625q0.890625 0 1.515625 -0.5q0.640625 -0.5 0.875 -1.328125q0.171875 -0.671875 0.171875 -1.890625q0 -1.234375 -0.15625 -1.890625q-0.21875 -0.828125 -0.875 -1.328125q-0.640625 -0.5 -1.546875 -0.5q-0.921875 0 -1.5625 0.5q-0.625 0.5 -0.84375 1.328125q-0.15625 0.65625 -0.15625 1.890625q0 1.234375 0.15625 1.890625q0.203125 0.828125 0.84375 1.328125q0.640625 0.5 1.578125 0.5zm10.480164 -8.578125q1.5 0 2.375 0.890625q0.890625 0.875 0.890625 2.34375l0 6.15625q0 0.1875 -0.1875 0.1875l-0.953125 0q-0.1875 0 -0.1875 -0.1875l0 -5.890625q0 -1.03125 -0.625 -1.671875q-0.625 -0.65625 -1.609375 -0.65625q-1.03125 0 -1.671875 0.640625q-0.625 0.625 -0.625 1.640625l0 5.9375q0 0.1875 -0.1875 0.1875l-0.953125 0q-0.171875 0 -0.171875 -0.1875l0 -9.0625q0 -0.1875 0.171875 -0.1875l0.953125 0q0.1875 0 0.1875 0.1875l0 0.796875q0 0.046875 0.03125 0.0625q0.03125 0.015625 0.046875 -0.015625q0.828125 -1.171875 2.515625 -1.171875zm11.961975 0.328125q0 -0.1875 0.1875 -0.1875l0.953125 0q0.1875 0 0.1875 0.1875l0 8.9375q0 2.078125 -1.203125 3.046875q-1.203125 0.984375 -3.3125 0.984375q-0.4375 0 -0.65625 -0.03125q-0.1875 -0.015625 -0.1875 -0.203125l0.046875 -0.859375q0 -0.09375 0.046875 -0.140625q0.0625 -0.046875 0.125 -0.015625l0.515625 0.015625q1.734375 0 2.515625 -0.6875q0.78125 -0.671875 0.78125 -2.15625l0 -0.6875q0 -0.03125 -0.03125 -0.03125q-0.03125 -0.015625 -0.0625 0.015625q-0.859375 1.125 -2.4375 1.125q-1.21875 0 -2.171875 -0.65625q-0.9375 -0.65625 -1.25 -1.84375q-0.21875 -0.765625 -0.21875 -2.28125q0 -0.828125 0.046875 -1.375q0.046875 -0.5625 0.1875 -1.015625q0.34375 -1.125 1.21875 -1.796875q0.875 -0.6875 2.109375 -0.6875q1.65625 0 2.515625 1.109375q0.03125 0.03125 0.0625 0.015625q0.03125 -0.015625 0.03125 -0.0625l0 -0.71875zm-0.09375 6.390625q0.0625 -0.28125 0.078125 -0.6875q0.015625 -0.40625 0.015625 -1.1875q0 -0.953125 -0.015625 -1.28125q-0.015625 -0.328125 -0.09375 -0.609375q-0.15625 -0.78125 -0.75 -1.296875q-0.578125 -0.515625 -1.46875 -0.515625q-0.875 0 -1.484375 0.515625q-0.609375 0.5 -0.84375 1.296875q-0.1875 0.59375 -0.1875 1.875q0 1.359375 0.1875 1.875q0.171875 0.78125 0.796875 1.296875q0.625 0.515625 1.53125 0.515625q0.90625 0 1.5 -0.5q0.59375 -0.515625 0.734375 -1.296875zm11.496704 -3.453125q0.078125 0.53125 0.078125 1.3125l0 0.59375q0 0.1875 -0.1875 0.1875l-6.03125 0q-0.078125 0 -0.078125 0.078125q0.046875 1.03125 0.109375 1.328125q0.203125 0.828125 0.875 1.328125q0.671875 0.484375 1.71875 0.484375q0.78125 0 1.375 -0.359375q0.609375 -0.359375 0.9375 -1.015625q0.125 -0.15625 0.265625 -0.0625l0.734375 0.421875q0.140625 0.09375 0.0625 0.265625q-0.453125 0.890625 -1.390625 1.40625q-0.9375 0.515625 -2.140625 0.515625q-1.328125 -0.015625 -2.234375 -0.625q-0.890625 -0.625 -1.28125 -1.734375q-0.328125 -0.890625 -0.328125 -2.5625q0 -0.796875 0.015625 -1.28125q0.03125 -0.5 0.140625 -0.890625q0.328125 -1.21875 1.28125 -1.9375q0.96875 -0.734375 2.328125 -0.734375q1.6875 0 2.59375 0.859375q0.921875 0.859375 1.15625 2.421875zm-3.75 -2.125q-0.921875 0 -1.53125 0.484375q-0.59375 0.46875 -0.78125 1.28125q-0.109375 0.390625 -0.15625 1.265625q0 0.078125 0.078125 0.078125l4.828125 0q0.078125 0 0.078125 -0.078125q-0.03125 -0.84375 -0.109375 -1.203125q-0.203125 -0.828125 -0.828125 -1.328125q-0.625 -0.5 -1.578125 -0.5zm10.256287 -1.09375q0.609375 0 1.0625 0.234375q0.15625 0.078125 0.109375 0.25l-0.203125 0.90625q-0.046875 0.1875 -0.234375 0.125q-0.328125 -0.140625 -0.734375 -0.140625l-0.234375 0.015625q-0.984375 0.046875 -1.625 0.734375q-0.625 0.671875 -0.625 1.71875l0 5.5q0 0.1875 -0.1875 0.1875l-0.953125 0q-0.171875 0 -0.171875 -0.1875l0 -9.0625q0 -0.1875 0.171875 -0.1875l0.953125 0q0.1875 0 0.1875 0.1875l0 1.140625q0 0.046875 0.03125 0.0625q0.03125 0 0.046875 -0.03125q0.390625 -0.6875 1.0 -1.0625q0.609375 -0.390625 1.40625 -0.390625z" fill-rule="nonzero"/><path fill="#000000" d="m767.7676 237.53561q-1.015625 0 -1.390625 0.46875q-0.375 0.453125 -0.375 1.546875l0 0.375q0 0.078125 0.078125 0.078125l2.078125 0q0.1875 0 0.1875 0.1875l0 0.84375q0 0.171875 -0.1875 0.171875l-2.078125 0q-0.078125 0 -0.078125 0.078125l0 7.96875q0 0.1875 -0.1875 0.1875l-0.9375 0q-0.1875 0 -0.1875 -0.1875l0 -7.96875q0 -0.078125 -0.0625 -0.078125l-1.25 0q-0.1875 0 -0.1875 -0.171875l0 -0.84375q0 -0.1875 0.1875 -0.1875l1.25 0q0.0625 0 0.0625 -0.078125l0 -0.453125q0 -1.15625 0.265625 -1.8125q0.265625 -0.65625 0.90625 -0.96875q0.640625 -0.3125 1.796875 -0.3125l0.546875 0q0.1875 0 0.1875 0.1875l0 0.78125q0 0.1875 -0.1875 0.1875l-0.4375 0zm5.6393433 12.0625q-1.34375 0 -2.3125 -0.6875q-0.96875 -0.703125 -1.34375 -1.90625q-0.265625 -0.859375 -0.265625 -2.296875q0 -1.4375 0.265625 -2.28125q0.359375 -1.1875 1.328125 -1.875q0.96875 -0.703125 2.34375 -0.703125q1.328125 0 2.28125 0.703125q0.96875 0.6875 1.328125 1.859375q0.25 0.796875 0.25 2.296875q0 1.5 -0.25 2.296875q-0.359375 1.203125 -1.328125 1.90625q-0.953125 0.6875 -2.296875 0.6875zm0 -1.15625q0.890625 0 1.515625 -0.5q0.640625 -0.5 0.875 -1.328125q0.171875 -0.671875 0.171875 -1.890625q0 -1.234375 -0.15625 -1.890625q-0.21875 -0.828125 -0.875 -1.328125q-0.640625 -0.5 -1.546875 -0.5q-0.921875 0 -1.5625 0.5q-0.625 0.5 -0.84375 1.328125q-0.15625 0.65625 -0.15625 1.890625q0 1.234375 0.15625 1.890625q0.203125 0.828125 0.84375 1.328125q0.640625 0.5 1.578125 0.5zm10.370789 -8.53125q0.609375 0 1.0625 0.234375q0.15625 0.078125 0.109375 0.25l-0.203125 0.90625q-0.046875 0.1875 -0.234375 0.125q-0.328125 -0.140625 -0.734375 -0.140625l-0.234375 0.015625q-0.984375 0.046875 -1.625 0.734375q-0.625 0.671875 -0.625 1.71875l0 5.5q0 0.1875 -0.1875 0.1875l-0.953125 0q-0.171875 0 -0.171875 -0.1875l0 -9.0625q0 -0.1875 0.171875 -0.1875l0.953125 0q0.1875 0 0.1875 0.1875l0 1.140625q0 0.046875 0.03125 0.0625q0.03125 0 0.046875 -0.03125q0.390625 -0.6875 1.0 -1.0625q0.609375 -0.390625 1.40625 -0.390625zm10.13501 3.21875q0.078125 0.53125 0.078125 1.3125l0 0.59375q0 0.1875 -0.1875 0.1875l-6.03125 0q-0.078125 0 -0.078125 0.078125q0.046875 1.03125 0.109375 1.328125q0.203125 0.828125 0.875 1.328125q0.671875 0.484375 1.71875 0.484375q0.78125 0 1.375 -0.359375q0.609375 -0.359375 0.9375 -1.015625q0.125 -0.15625 0.265625 -0.0625l0.734375 0.421875q0.140625 0.09375 0.0625 0.265625q-0.453125 0.890625 -1.390625 1.40625q-0.9375 0.515625 -2.140625 0.515625q-1.328125 -0.015625 -2.234375 -0.625q-0.890625 -0.625 -1.28125 -1.734375q-0.328125 -0.890625 -0.328125 -2.5625q0 -0.796875 0.015625 -1.28125q0.03125 -0.5 0.140625 -0.890625q0.328125 -1.21875 1.28125 -1.9375q0.96875 -0.734375 2.328125 -0.734375q1.6875 0 2.59375 0.859375q0.921875 0.859375 1.15625 2.421875zm-3.75 -2.125q-0.921875 0 -1.53125 0.484375q-0.59375 0.46875 -0.78125 1.28125q-0.109375 0.390625 -0.15625 1.265625q0 0.078125 0.078125 0.078125l4.828125 0q0.078125 0 0.078125 -0.078125q-0.03125 -0.84375 -0.109375 -1.203125q-0.203125 -0.828125 -0.828125 -1.328125q-0.625 -0.5 -1.578125 -0.5zm10.021912 8.59375q-1.34375 0 -2.3125 -0.703125q-0.953125 -0.703125 -1.3125 -1.890625q-0.25 -0.828125 -0.25 -2.3125q0 -1.34375 0.25 -2.28125q0.328125 -1.15625 1.296875 -1.859375q0.984375 -0.703125 2.328125 -0.703125q1.359375 0 2.34375 0.703125q1.0 0.6875 1.3125 1.703125q0.09375 0.34375 0.109375 0.5625l0 0.046875q0 0.125 -0.171875 0.15625l-0.9375 0.140625l-0.03125 0q-0.125 0 -0.171875 -0.171875l-0.046875 -0.28125q-0.171875 -0.703125 -0.828125 -1.203125q-0.65625 -0.5 -1.578125 -0.5q-0.9375 0 -1.5625 0.5q-0.625 0.5 -0.8125 1.3125q-0.171875 0.71875 -0.171875 1.890625q0 1.234375 0.171875 1.90625q0.1875 0.828125 0.8125 1.328125q0.625 0.5 1.5625 0.5q0.90625 0 1.5625 -0.46875q0.671875 -0.484375 0.84375 -1.234375l0 -0.078125l0.015625 -0.078125q0.015625 -0.1875 0.21875 -0.140625l0.921875 0.140625q0.1875 0.046875 0.15625 0.203125l-0.0625 0.375q-0.28125 1.09375 -1.296875 1.765625q-1.0 0.671875 -2.359375 0.671875zm9.388733 -9.75q1.6875 0 2.59375 0.859375q0.921875 0.859375 0.921875 2.28125l0 6.265625q0 0.1875 -0.1875 0.1875l-0.953125 0q-0.1875 0 -0.1875 -0.1875l0 -0.765625q0 -0.03125 -0.03125 -0.046875q-0.015625 -0.03125 -0.0625 0.015625q-0.46875 0.5625 -1.21875 0.859375q-0.734375 0.28125 -1.65625 0.28125q-1.3125 0 -2.21875 -0.671875q-0.890625 -0.671875 -0.890625 -2.0625q0 -1.390625 1.015625 -2.203125q1.015625 -0.8125 2.828125 -0.8125l2.15625 0q0.078125 0 0.078125 -0.078125l0 -0.703125q0 -0.953125 -0.53125 -1.5q-0.53125 -0.5625 -1.65625 -0.5625q-0.890625 0 -1.453125 0.34375q-0.546875 0.34375 -0.6875 0.96875q-0.046875 0.1875 -0.21875 0.171875l-1.015625 -0.140625q-0.203125 -0.03125 -0.15625 -0.140625q0.140625 -1.046875 1.109375 -1.703125q0.96875 -0.65625 2.421875 -0.65625zm-0.515625 8.609375q1.09375 0 1.890625 -0.546875q0.8125 -0.5625 0.8125 -1.484375l0 -1.46875q0 -0.0625 -0.078125 -0.0625l-1.953125 0q-1.234375 0 -1.984375 0.5q-0.734375 0.5 -0.734375 1.390625q0 0.828125 0.5625 1.25q0.578125 0.421875 1.484375 0.421875zm9.892761 1.078125q-1.046875 0 -1.859375 -0.328125q-0.8125 -0.34375 -1.25 -0.90625q-0.4375 -0.5625 -0.4375 -1.25l0 -0.21875q0 -0.1875 0.1875 -0.1875l0.890625 0q0.1875 0 0.1875 0.1875l0 0.140625q0 0.625 0.640625 1.078125q0.640625 0.453125 1.625 0.453125q0.96875 0 1.5625 -0.4375q0.59375 -0.4375 0.59375 -1.109375q0 -0.46875 -0.3125 -0.765625q-0.296875 -0.296875 -0.71875 -0.453125q-0.421875 -0.171875 -1.296875 -0.4375q-1.046875 -0.296875 -1.71875 -0.59375q-0.671875 -0.296875 -1.140625 -0.828125q-0.453125 -0.53125 -0.453125 -1.359375q0 -1.1875 0.9375 -1.890625q0.9375 -0.71875 2.46875 -0.71875q1.015625 0 1.8125 0.34375q0.796875 0.328125 1.21875 0.921875q0.4375 0.578125 0.4375 1.3125l0 0.046875q0 0.1875 -0.1875 0.1875l-0.875 0q-0.1875 0 -0.1875 -0.1875l0 -0.046875q0 -0.640625 -0.609375 -1.0625q-0.609375 -0.4375 -1.625 -0.4375q-0.953125 0 -1.53125 0.390625q-0.578125 0.375 -0.578125 1.046875q0 0.640625 0.546875 0.984375q0.5625 0.328125 1.75 0.65625q1.078125 0.3125 1.75 0.59375q0.671875 0.28125 1.15625 0.8125q0.484375 0.53125 0.484375 1.390625q0 1.21875 -0.953125 1.953125q-0.953125 0.71875 -2.515625 0.71875zm10.095581 -8.625q0 0.1875 -0.1875 0.1875l-2.109375 0q-0.078125 0 -0.078125 0.078125l0 5.5q0 0.90625 0.390625 1.265625q0.40625 0.359375 1.265625 0.359375l0.46875 0q0.1875 0 0.1875 0.1875l0 0.765625q0 0.1875 -0.1875 0.1875q-0.21875 0.015625 -0.6875 0.015625q-1.34375 0 -2.03125 -0.5q-0.6875 -0.5 -0.6875 -1.859375l0 -5.921875q0 -0.078125 -0.078125 -0.078125l-1.140625 0q-0.1875 0 -0.1875 -0.1875l0 -0.71875q0 -0.1875 0.1875 -0.1875l1.140625 0q0.078125 0 0.078125 -0.078125l0 -2.15625q0 -0.1875 0.171875 -0.1875l0.921875 0q0.1875 0 0.1875 0.1875l0 2.15625q0 0.078125 0.078125 0.078125l2.109375 0q0.1875 0 0.1875 0.1875l0 0.71875z" fill-rule="nonzero"/><path fill="#000000" fill-opacity="0.0" d="m119.48809 329.03412l88.850395 0l0 29.259857l-88.850395 0z" fill-rule="evenodd"/><path fill="#325d79" d="m139.01549 336.84717q1.953125 0 3.453125 0.609375q1.515625 0.609375 2.625 1.78125l-1.765625 2.375q-0.921875 -0.96875 -1.984375 -1.4375q-1.046875 -0.484375 -2.390625 -0.484375q-0.796875 0 -1.296875 0.171875q-0.484375 0.171875 -0.703125 0.46875q-0.203125 0.296875 -0.203125 0.6875q0 0.4375 0.40625 0.75q0.421875 0.3125 1.359375 0.53125l2.375 0.53125q2.109375 0.484375 3.09375 1.421875q0.984375 0.9375 0.984375 2.5q0 1.484375 -0.78125 2.53125q-0.765625 1.03125 -2.109375 1.5625q-1.34375 0.515625 -3.0625 0.515625q-1.40625 0 -2.6875 -0.3125q-1.28125 -0.3125 -2.3125 -0.890625q-1.015625 -0.578125 -1.71875 -1.3125l1.765625 -2.453125q0.53125 0.609375 1.3125 1.09375q0.78125 0.484375 1.703125 0.765625q0.9375 0.265625 1.890625 0.265625q0.75 0 1.25 -0.140625q0.5 -0.15625 0.734375 -0.453125q0.234375 -0.296875 0.234375 -0.703125q0 -0.453125 -0.328125 -0.75q-0.3125 -0.3125 -1.203125 -0.53125l-2.609375 -0.578125q-1.1875 -0.28125 -2.125 -0.734375q-0.921875 -0.453125 -1.453125 -1.234375q-0.53125 -0.78125 -0.53125 -1.953125q0 -1.328125 0.71875 -2.359375q0.734375 -1.03125 2.09375 -1.625q1.359375 -0.609375 3.265625 -0.609375zm12.459824 0.234375l0 10.265625q0 0.765625 0.359375 1.09375q0.375 0.328125 1.046875 0.328125q0.5 0 0.875 -0.109375q0.375 -0.125 0.671875 -0.359375l0.390625 2.25q-0.53125 0.375 -1.34375 0.59375q-0.8125 0.21875 -1.671875 0.21875q-1.203125 0 -2.09375 -0.34375q-0.890625 -0.34375 -1.375 -1.09375q-0.46875 -0.75 -0.484375 -1.984375l0 -9.84375l3.625 -1.015625zm3.171875 3.390625l0 2.59375l-8.640625 0l0 -2.59375l8.640625 0zm6.8829346 10.890625q-1.765625 0 -3.0625 -0.65625q-1.28125 -0.671875 -1.984375 -1.90625q-0.703125 -1.234375 -0.703125 -2.984375q0 -1.75 0.703125 -2.984375q0.703125 -1.25 1.96875 -1.90625q1.265625 -0.65625 2.90625 -0.65625q1.6875 0 2.875 0.65625q1.1875 0.640625 1.796875 1.78125q0.625 1.140625 0.625 2.609375q0 0.390625 -0.03125 0.78125q-0.015625 0.375 -0.0625 0.625l-8.4375 0l0 -1.9375l6.84375 0l-1.71875 0.671875q0 -1.28125 -0.46875 -1.96875q-0.453125 -0.6875 -1.421875 -0.6875q-0.671875 0 -1.15625 0.328125q-0.484375 0.3125 -0.734375 1.0q-0.234375 0.6875 -0.234375 1.75q0 1.046875 0.265625 1.703125q0.28125 0.640625 0.796875 0.9375q0.515625 0.28125 1.234375 0.28125q0.8125 0 1.296875 -0.3125q0.484375 -0.328125 0.71875 -0.90625l2.890625 0.953125q-0.296875 0.921875 -1.03125 1.5625q-0.734375 0.625 -1.75 0.953125q-1.015625 0.3125 -2.125 0.3125zm7.1459045 4.265625l0 -15.15625l3.265625 0l0.1875 3.875l-0.421875 -0.453125q0.15625 -1.0625 0.65625 -1.875q0.515625 -0.8125 1.328125 -1.28125q0.8125 -0.46875 1.859375 -0.46875q1.3125 0 2.296875 0.65625q0.984375 0.640625 1.53125 1.875q0.546875 1.21875 0.546875 2.96875q0 1.75 -0.5625 3.015625q-0.546875 1.25 -1.546875 1.921875q-0.984375 0.65625 -2.3125 0.65625q-1.453125 0 -2.34375 -0.859375q-0.890625 -0.875 -1.203125 -2.203125l0.34375 -0.5l0 7.828125l-3.625 0zm5.59375 -6.9375q0.9375 0 1.46875 -0.6875q0.53125 -0.703125 0.53125 -2.1875q0 -1.5 -0.53125 -2.1875q-0.515625 -0.703125 -1.453125 -0.703125q-0.59375 0 -1.046875 0.34375q-0.4375 0.328125 -0.6875 0.96875q-0.25 0.640625 -0.25 1.578125q0 0.890625 0.21875 1.546875q0.234375 0.640625 0.671875 0.984375q0.453125 0.34375 1.078125 0.34375zm16.489487 2.453125l0 -8.109375q0 -0.546875 0 -1.125q0.015625 -0.59375 0.015625 -1.21875q-0.703125 0.640625 -1.5625 1.125q-0.84375 0.484375 -1.78125 0.640625l-0.34375 -3.015625q0.546875 -0.046875 1.171875 -0.28125q0.640625 -0.234375 1.25 -0.578125q0.625 -0.34375 1.109375 -0.734375q0.5 -0.390625 0.75 -0.78125l2.921875 0l0 14.078125l-3.53125 0z" fill-rule="nonzero"/><path fill="#000000" fill-opacity="0.0" d="m270.04337 271.86615l103.52756 0l0 29.259827l-103.52756 0z" fill-rule="evenodd"/><path fill="#325d79" d="m295.06442 279.6792q1.953125 0 3.453125 0.609375q1.515625 0.609375 2.625 1.78125l-1.765625 2.375q-0.921875 -0.96875 -1.984375 -1.4375q-1.046875 -0.484375 -2.390625 -0.484375q-0.796875 0 -1.296875 0.171875q-0.484375 0.171875 -0.703125 0.46875q-0.203125 0.296875 -0.203125 0.6875q0 0.4375 0.40625 0.75q0.421875 0.3125 1.359375 0.53125l2.375 0.53125q2.109375 0.484375 3.09375 1.421875q0.984375 0.9375 0.984375 2.5q0 1.484375 -0.78125 2.53125q-0.765625 1.03125 -2.109375 1.5625q-1.34375 0.515625 -3.0625 0.515625q-1.40625 0 -2.6875 -0.3125q-1.28125 -0.3125 -2.3125 -0.890625q-1.015625 -0.578125 -1.71875 -1.3125l1.765625 -2.453125q0.53125 0.609375 1.3125 1.09375q0.78125 0.484375 1.703125 0.765625q0.9375 0.265625 1.890625 0.265625q0.75 0 1.25 -0.140625q0.5 -0.15625 0.734375 -0.453125q0.234375 -0.296875 0.234375 -0.703125q0 -0.453125 -0.328125 -0.75q-0.3125 -0.3125 -1.203125 -0.53125l-2.609375 -0.578125q-1.1875 -0.28125 -2.125 -0.734375q-0.921875 -0.453125 -1.453125 -1.234375q-0.53125 -0.78125 -0.53125 -1.953125q0 -1.328125 0.71875 -2.359375q0.734375 -1.03125 2.09375 -1.625q1.359375 -0.609375 3.265625 -0.609375zm12.459839 0.234375l0 10.265625q0 0.765625 0.359375 1.09375q0.375 0.328125 1.046875 0.328125q0.5 0 0.875 -0.109375q0.375 -0.125 0.671875 -0.359375l0.390625 2.25q-0.53125 0.375 -1.34375 0.59375q-0.8125 0.21875 -1.671875 0.21875q-1.203125 0 -2.09375 -0.34375q-0.890625 -0.34375 -1.375 -1.09375q-0.46875 -0.75 -0.484375 -1.984375l0 -9.84375l3.625 -1.015625zm3.171875 3.390625l0 2.59375l-8.640625 0l0 -2.59375l8.640625 0zm6.8829346 10.890625q-1.765625 0 -3.0625 -0.65625q-1.28125 -0.671875 -1.984375 -1.90625q-0.703125 -1.234375 -0.703125 -2.984375q0 -1.75 0.703125 -2.984375q0.703125 -1.25 1.96875 -1.90625q1.265625 -0.65625 2.90625 -0.65625q1.6875 0 2.875 0.65625q1.1875 0.640625 1.796875 1.78125q0.625 1.140625 0.625 2.609375q0 0.390625 -0.03125 0.78125q-0.015625 0.375 -0.0625 0.625l-8.4375 0l0 -1.9375l6.84375 0l-1.71875 0.671875q0 -1.28125 -0.46875 -1.96875q-0.453125 -0.6875 -1.421875 -0.6875q-0.671875 0 -1.15625 0.328125q-0.484375 0.3125 -0.734375 1.0q-0.234375 0.6875 -0.234375 1.75q0 1.046875 0.265625 1.703125q0.28125 0.640625 0.796875 0.9375q0.515625 0.28125 1.234375 0.28125q0.8125 0 1.296875 -0.3125q0.484375 -0.328125 0.71875 -0.90625l2.890625 0.953125q-0.296875 0.921875 -1.03125 1.5625q-0.734375 0.625 -1.75 0.953125q-1.015625 0.3125 -2.125 0.3125zm7.1459045 4.265625l0 -15.15625l3.265625 0l0.1875 3.875l-0.421875 -0.453125q0.15625 -1.0625 0.65625 -1.875q0.515625 -0.8125 1.328125 -1.28125q0.8125 -0.46875 1.859375 -0.46875q1.3125 0 2.296875 0.65625q0.984375 0.640625 1.53125 1.875q0.546875 1.21875 0.546875 2.96875q0 1.75 -0.5625 3.015625q-0.546875 1.25 -1.546875 1.921875q-0.984375 0.65625 -2.3125 0.65625q-1.453125 0 -2.34375 -0.859375q-0.890625 -0.875 -1.203125 -2.203125l0.34375 -0.5l0 7.828125l-3.625 0zm5.59375 -6.9375q0.9375 0 1.46875 -0.6875q0.53125 -0.703125 0.53125 -2.1875q0 -1.5 -0.53125 -2.1875q-0.515625 -0.703125 -1.453125 -0.703125q-0.59375 0 -1.046875 0.34375q-0.4375 0.328125 -0.6875 0.96875q-0.25 0.640625 -0.25 1.578125q0 0.890625 0.21875 1.546875q0.234375 0.640625 0.671875 0.984375q0.453125 0.34375 1.078125 0.34375zm13.863281 2.453125l0 -2.34375q1.8125 -1.125 3.09375 -2.109375q1.28125 -0.984375 2.078125 -1.859375q0.796875 -0.875 1.171875 -1.65625q0.390625 -0.796875 0.390625 -1.546875q0 -0.8125 -0.484375 -1.34375q-0.46875 -0.546875 -1.40625 -0.546875q-1.0 0 -1.5625 0.734375q-0.546875 0.734375 -0.59375 2.140625l-3.140625 -0.953125q0.046875 -1.578125 0.75 -2.640625q0.71875 -1.078125 1.953125 -1.625q1.25 -0.546875 2.828125 -0.546875q1.375 0 2.390625 0.40625q1.015625 0.390625 1.65625 1.046875q0.640625 0.640625 0.953125 1.453125q0.3125 0.796875 0.3125 1.625q0 1.359375 -0.703125 2.546875q-0.703125 1.1875 -2.046875 2.28125q-1.328125 1.09375 -3.234375 2.203125l0 0.03125q0.375 -0.03125 0.859375 -0.046875q0.484375 -0.015625 1.015625 -0.03125q0.546875 -0.015625 0.96875 -0.015625l3.3125 0l0 2.796875l-10.5625 0z" fill-rule="nonzero"/><path fill="#000000" fill-opacity="0.0" d="m585.25995 271.86615l105.480286 0l0 29.259827l-105.480286 0z" fill-rule="evenodd"/><path fill="#325d79" d="m611.28937 279.6792q1.953125 0 3.453125 0.609375q1.515625 0.609375 2.625 1.78125l-1.765625 2.375q-0.921875 -0.96875 -1.984375 -1.4375q-1.046875 -0.484375 -2.390625 -0.484375q-0.796875 0 -1.296875 0.171875q-0.484375 0.171875 -0.703125 0.46875q-0.203125 0.296875 -0.203125 0.6875q0 0.4375 0.40625 0.75q0.421875 0.3125 1.359375 0.53125l2.375 0.53125q2.109375 0.484375 3.09375 1.421875q0.984375 0.9375 0.984375 2.5q0 1.484375 -0.78125 2.53125q-0.765625 1.03125 -2.109375 1.5625q-1.34375 0.515625 -3.0625 0.515625q-1.40625 0 -2.6875 -0.3125q-1.28125 -0.3125 -2.3125 -0.890625q-1.015625 -0.578125 -1.71875 -1.3125l1.765625 -2.453125q0.53125 0.609375 1.3125 1.09375q0.78125 0.484375 1.703125 0.765625q0.9375 0.265625 1.890625 0.265625q0.75 0 1.25 -0.140625q0.5 -0.15625 0.734375 -0.453125q0.234375 -0.296875 0.234375 -0.703125q0 -0.453125 -0.328125 -0.75q-0.3125 -0.3125 -1.203125 -0.53125l-2.609375 -0.578125q-1.1875 -0.28125 -2.125 -0.734375q-0.921875 -0.453125 -1.453125 -1.234375q-0.53125 -0.78125 -0.53125 -1.953125q0 -1.328125 0.71875 -2.359375q0.734375 -1.03125 2.09375 -1.625q1.359375 -0.609375 3.265625 -0.609375zm12.459839 0.234375l0 10.265625q0 0.765625 0.359375 1.09375q0.375 0.328125 1.046875 0.328125q0.5 0 0.875 -0.109375q0.375 -0.125 0.671875 -0.359375l0.390625 2.25q-0.53125 0.375 -1.34375 0.59375q-0.8125 0.21875 -1.671875 0.21875q-1.203125 0 -2.09375 -0.34375q-0.890625 -0.34375 -1.375 -1.09375q-0.46875 -0.75 -0.484375 -1.984375l0 -9.84375l3.625 -1.015625zm3.171875 3.390625l0 2.59375l-8.640625 0l0 -2.59375l8.640625 0zm6.8829346 10.890625q-1.765625 0 -3.0625 -0.65625q-1.28125 -0.671875 -1.984375 -1.90625q-0.703125 -1.234375 -0.703125 -2.984375q0 -1.75 0.703125 -2.984375q0.703125 -1.25 1.96875 -1.90625q1.265625 -0.65625 2.90625 -0.65625q1.6875 0 2.875 0.65625q1.1875 0.640625 1.796875 1.78125q0.625 1.140625 0.625 2.609375q0 0.390625 -0.03125 0.78125q-0.015625 0.375 -0.0625 0.625l-8.4375 0l0 -1.9375l6.84375 0l-1.71875 0.671875q0 -1.28125 -0.46875 -1.96875q-0.453125 -0.6875 -1.421875 -0.6875q-0.671875 0 -1.15625 0.328125q-0.484375 0.3125 -0.734375 1.0q-0.234375 0.6875 -0.234375 1.75q0 1.046875 0.265625 1.703125q0.28125 0.640625 0.796875 0.9375q0.515625 0.28125 1.234375 0.28125q0.8125 0 1.296875 -0.3125q0.484375 -0.328125 0.71875 -0.90625l2.890625 0.953125q-0.296875 0.921875 -1.03125 1.5625q-0.734375 0.625 -1.75 0.953125q-1.015625 0.3125 -2.125 0.3125zm7.145874 4.265625l0 -15.15625l3.265625 0l0.1875 3.875l-0.421875 -0.453125q0.15625 -1.0625 0.65625 -1.875q0.515625 -0.8125 1.328125 -1.28125q0.8125 -0.46875 1.859375 -0.46875q1.3125 0 2.296875 0.65625q0.984375 0.640625 1.53125 1.875q0.546875 1.21875 0.546875 2.96875q0 1.75 -0.5625 3.015625q-0.546875 1.25 -1.546875 1.921875q-0.984375 0.65625 -2.3125 0.65625q-1.453125 0 -2.34375 -0.859375q-0.890625 -0.875 -1.203125 -2.203125l0.34375 -0.5l0 7.828125l-3.625 0zm5.59375 -6.9375q0.9375 0 1.46875 -0.6875q0.53125 -0.703125 0.53125 -2.1875q0 -1.5 -0.53125 -2.1875q-0.515625 -0.703125 -1.453125 -0.703125q-0.59375 0 -1.046875 0.34375q-0.4375 0.328125 -0.6875 0.96875q-0.25 0.640625 -0.25 1.578125q0 0.890625 0.21875 1.546875q0.234375 0.640625 0.671875 0.984375q0.453125 0.34375 1.078125 0.34375zm19.003906 2.671875q-2.265625 0 -3.765625 -0.890625q-1.5 -0.890625 -2.078125 -2.59375l3.375 -1.453125q0.09375 0.765625 0.375 1.234375q0.296875 0.453125 0.78125 0.65625q0.5 0.203125 1.15625 0.203125q0.609375 0 1.015625 -0.203125q0.421875 -0.203125 0.65625 -0.578125q0.234375 -0.390625 0.234375 -0.921875q0 -0.5625 -0.234375 -0.890625q-0.21875 -0.34375 -0.640625 -0.484375q-0.40625 -0.15625 -1.0 -0.15625q-0.28125 0 -0.515625 0.015625q-0.234375 0 -0.53125 0.046875l0 -2.390625q0.171875 0.015625 0.34375 0.03125q0.171875 0.015625 0.40625 0.015625q1.0 0 1.4375 -0.421875q0.4375 -0.421875 0.4375 -1.3125q0 -0.765625 -0.4375 -1.171875q-0.4375 -0.40625 -1.234375 -0.40625q-0.828125 0 -1.359375 0.4375q-0.53125 0.4375 -0.6875 1.484375l-3.21875 -1.109375q0.234375 -1.171875 1.0 -1.984375q0.765625 -0.8125 1.921875 -1.234375q1.171875 -0.4375 2.578125 -0.4375q1.625 0 2.734375 0.484375q1.109375 0.46875 1.6875 1.34375q0.578125 0.859375 0.578125 2.046875q0 0.90625 -0.296875 1.53125q-0.28125 0.609375 -0.71875 1.0q-0.4375 0.390625 -0.890625 0.578125q-0.453125 0.171875 -0.75 0.203125l0 0.078125q0.390625 0 0.875 0.15625q0.5 0.140625 0.96875 0.46875q0.46875 0.328125 0.765625 0.90625q0.3125 0.578125 0.3125 1.421875q0 1.328125 -0.6875 2.296875q-0.6875 0.953125 -1.890625 1.484375q-1.1875 0.515625 -2.703125 0.515625z" fill-rule="nonzero"/><path fill="#000000" fill-opacity="0.0" d="m742.803 329.03412l107.055115 0l0 29.259857l-107.055115 0z" fill-rule="evenodd"/><path fill="#325d79" d="m769.0546 336.84717q1.953125 0 3.453125 0.609375q1.515625 0.609375 2.625 1.78125l-1.765625 2.375q-0.921875 -0.96875 -1.984375 -1.4375q-1.046875 -0.484375 -2.390625 -0.484375q-0.796875 0 -1.296875 0.171875q-0.484375 0.171875 -0.703125 0.46875q-0.203125 0.296875 -0.203125 0.6875q0 0.4375 0.40625 0.75q0.421875 0.3125 1.359375 0.53125l2.375 0.53125q2.109375 0.484375 3.09375 1.421875q0.984375 0.9375 0.984375 2.5q0 1.484375 -0.78125 2.53125q-0.765625 1.03125 -2.109375 1.5625q-1.34375 0.515625 -3.0625 0.515625q-1.40625 0 -2.6875 -0.3125q-1.28125 -0.3125 -2.3125 -0.890625q-1.015625 -0.578125 -1.71875 -1.3125l1.765625 -2.453125q0.53125 0.609375 1.3125 1.09375q0.78125 0.484375 1.703125 0.765625q0.9375 0.265625 1.890625 0.265625q0.75 0 1.25 -0.140625q0.5 -0.15625 0.734375 -0.453125q0.234375 -0.296875 0.234375 -0.703125q0 -0.453125 -0.328125 -0.75q-0.3125 -0.3125 -1.203125 -0.53125l-2.609375 -0.578125q-1.1875 -0.28125 -2.125 -0.734375q-0.921875 -0.453125 -1.453125 -1.234375q-0.53125 -0.78125 -0.53125 -1.953125q0 -1.328125 0.71875 -2.359375q0.734375 -1.03125 2.09375 -1.625q1.359375 -0.609375 3.265625 -0.609375zm12.459839 0.234375l0 10.265625q0 0.765625 0.359375 1.09375q0.375 0.328125 1.046875 0.328125q0.5 0 0.875 -0.109375q0.375 -0.125 0.671875 -0.359375l0.390625 2.25q-0.53125 0.375 -1.34375 0.59375q-0.8125 0.21875 -1.671875 0.21875q-1.203125 0 -2.09375 -0.34375q-0.890625 -0.34375 -1.375 -1.09375q-0.46875 -0.75 -0.484375 -1.984375l0 -9.84375l3.625 -1.015625zm3.171875 3.390625l0 2.59375l-8.640625 0l0 -2.59375l8.640625 0zm6.8829346 10.890625q-1.765625 0 -3.0625 -0.65625q-1.28125 -0.671875 -1.984375 -1.90625q-0.703125 -1.234375 -0.703125 -2.984375q0 -1.75 0.703125 -2.984375q0.703125 -1.25 1.96875 -1.90625q1.265625 -0.65625 2.90625 -0.65625q1.6875 0 2.875 0.65625q1.1875 0.640625 1.796875 1.78125q0.625 1.140625 0.625 2.609375q0 0.390625 -0.03125 0.78125q-0.015625 0.375 -0.0625 0.625l-8.4375 0l0 -1.9375l6.84375 0l-1.71875 0.671875q0 -1.28125 -0.46875 -1.96875q-0.453125 -0.6875 -1.421875 -0.6875q-0.671875 0 -1.15625 0.328125q-0.484375 0.3125 -0.734375 1.0q-0.234375 0.6875 -0.234375 1.75q0 1.046875 0.265625 1.703125q0.28125 0.640625 0.796875 0.9375q0.515625 0.28125 1.234375 0.28125q0.8125 0 1.296875 -0.3125q0.484375 -0.328125 0.71875 -0.90625l2.890625 0.953125q-0.296875 0.921875 -1.03125 1.5625q-0.734375 0.625 -1.75 0.953125q-1.015625 0.3125 -2.125 0.3125zm7.145874 4.265625l0 -15.15625l3.265625 0l0.1875 3.875l-0.421875 -0.453125q0.15625 -1.0625 0.65625 -1.875q0.515625 -0.8125 1.328125 -1.28125q0.8125 -0.46875 1.859375 -0.46875q1.3125 0 2.296875 0.65625q0.984375 0.640625 1.53125 1.875q0.546875 1.21875 0.546875 2.96875q0 1.75 -0.5625 3.015625q-0.546875 1.25 -1.546875 1.921875q-0.984375 0.65625 -2.3125 0.65625q-1.453125 0 -2.34375 -0.859375q-0.890625 -0.875 -1.203125 -2.203125l0.34375 -0.5l0 7.828125l-3.625 0zm5.59375 -6.9375q0.9375 0 1.46875 -0.6875q0.53125 -0.703125 0.53125 -2.1875q0 -1.5 -0.53125 -2.1875q-0.515625 -0.703125 -1.453125 -0.703125q-0.59375 0 -1.046875 0.34375q-0.4375 0.328125 -0.6875 0.96875q-0.25 0.640625 -0.25 1.578125q0 0.890625 0.21875 1.546875q0.234375 0.640625 0.671875 0.984375q0.453125 0.34375 1.078125 0.34375zm20.363281 2.453125l0 -3.09375l-6.859375 0l0 -2.296875q0.1875 -0.34375 0.5 -0.828125q0.3125 -0.5 0.734375 -1.140625l4.578125 -6.71875l4.296875 0l0 8.46875l2.15625 0l0 2.515625l-2.15625 0l0 3.09375l-3.25 0zm-3.921875 -5.609375l3.96875 0l0 -4.265625q0 -0.421875 0.015625 -0.875q0.03125 -0.46875 0.046875 -0.9375l-0.046875 0q-0.203125 0.453125 -0.5 0.9375q-0.28125 0.46875 -0.546875 0.859375l-2.484375 3.640625q-0.109375 0.171875 -0.21875 0.328125q-0.109375 0.140625 -0.234375 0.3125z" fill-rule="nonzero"/><path fill="#000000" fill-opacity="0.0" d="m-3.559055 314.91208l965.8268 0" fill-rule="evenodd"/><path stroke="#ded6d4" stroke-width="2.0" stroke-linejoin="round" stroke-linecap="butt" d="m-3.559055 314.91208l965.8268 0" fill-rule="evenodd"/><path fill="#ded6d4" d="m648.99146 314.8884l-10.992126 19.02362l-10.992126 -19.02362z" fill-rule="evenodd"/><path fill="#ded6d4" d="m785.53955 314.89694l10.7716675 -18.64566l10.7716675 18.64566z" fill-rule="evenodd"/><path fill="#ded6d4" d="m153.15466 314.88965l10.755905 -18.614166l10.755905 18.614166z" fill-rule="evenodd"/><path fill="#ded6d4" d="m333.19882 314.8884l-10.992126 19.02362l-10.992126 -19.02362z" fill-rule="evenodd"/></g></svg>